<svg version="1.0" xmlns="http://www.w3.org/2000/svg" style="margin-left:-5px;fill:#1a7452" width="145px" height="auto" viewBox="0 0 1772 604"><path d="M263 89c-4 1-9 6-34 31l-30 30 38 38 38 38 39-38 38-38-28-29c-33-33-35-34-48-34l-13 2zm-100 52a440 440 0 0 0-49 51c-1 5 0 9 5 14l4 4 3-6c1-4 2-6 5-8 5-3 9-2 19 5 15 12 37 21 62 27l15 4c3 1 4 1 7-1 5-4 10-6 17-7h6l-41-42-42-41-5-1-7 1zm213 1-43 42-40 40h6c7 1 13 3 18 7 3 2 4 2 6 1l12-3c27-6 51-16 68-30 8-6 12-6 16-3 4 2 5 4 7 9l1 5 4-3c6-6 8-13 5-19l-48-47c-3-2-9-1-12 1zm618 22c-29 4-54 20-70 43-24 38-24 97 1 133 9 14 21 24 36 31 13 6 22 8 40 9 32 1 55-7 75-26 17-16 27-36 31-64 2-11 1-39-2-49-11-53-56-84-111-77zm26 40c16 5 27 18 34 40 2 8 2 10 2 27 0 22-1 29-8 44-9 19-28 29-47 26-20-3-34-18-41-42-5-24-3-49 6-69 7-13 19-24 31-27 7-1 16-1 23 1zm413-40c-10 1-24 5-32 10-36 17-56 54-56 100 0 22 6 44 15 61 7 11 22 26 32 32 9 5 20 9 32 12 12 2 37 1 49-2 42-11 68-43 73-90 2-12 1-34-1-44-7-32-24-55-49-68-18-10-41-14-63-11zm31 42c20 10 32 35 32 65 0 39-16 65-43 70-14 2-27-2-38-13s-17-28-19-50c-1-20 4-40 12-53 3-6 11-14 16-17 7-4 14-6 24-6 8 1 10 1 16 4zm-656-40c-22 5-39 13-53 28-22 22-32 49-31 83 2 35 18 66 46 85a109 109 0 0 0 119 0l2-2-3-26-2-27-8 7c-8 8-15 12-25 16-10 3-25 4-35 1-21-7-37-23-43-44-2-9-2-24 0-33 7-23 24-40 48-45 20-4 40 3 56 19l7 6 3-25 2-25-3-3c-4-3-20-11-30-14-7-2-11-2-25-3-13 0-18 0-25 2zm363 0-22 2-11 1v207h4c20 4 69 4 89 0 47-8 74-29 87-66 4-14 6-25 6-42 0-32-7-53-24-71-25-26-63-35-129-31zm54 38c31 6 48 29 48 64 0 32-12 55-35 66-10 5-17 6-34 6h-16l-1-68v-68h4c12-2 24-2 34 0zm-650 68v105h134v-40h-86v-49h77v-39h-77v-43h82v-39H575v105zm1002 0v105h135v-40h-86v-49h77v-39h-77v-43h81v-39h-130v105z"/><path d="M135 211c-5 18-8 36-9 58 0 27 2 39 10 43 7 5 28 3 54-3l47-15c2-1 1-2-5-9-9-9-12-15-13-24 0-5 0-8 2-12l2-7-14-3-22-7a190 190 0 0 1-50-27l-2 6zm277-5c-2 2-11 9-19 13a223 223 0 0 1-64 23v5l2 11c0 10-3 16-12 26l-7 9c1 2 32 12 44 15 20 5 29 6 43 6 12 0 13 0 16-2 7-5 10-13 9-37 0-22-3-47-8-63-2-7-3-8-4-6z"/><path d="M91 257c-30 31-31 31-31 46 1 13 2 14 35 47l28 29 28-28 27-28-12 2c-12 1-25 1-31-1-9-3-16-12-19-27l-1-28a308 308 0 0 1 4-39l-28 27zm341-25 2 12c2 14 2 36 1 47-2 17-7 26-16 31-7 4-20 5-35 3l-11-2 28 28 27 27 29-28c32-33 33-35 33-48s-2-16-32-47l-26-24zm-186 4c-14 5-20 20-13 33 2 4 26 29 33 35 4 3 6 4 10 4s5 0 15-10c13-11 26-26 28-31s1-14-1-19c-4-8-12-13-21-13-7 0-14 4-20 12-2 2-2 2-3 1-6-10-18-15-28-12zm-5 73c-28 11-56 29-78 48-9 8-18 17-18 20 0 1 5 3 19 6a169 169 0 0 1 78 38v-21c0-37 4-62 13-81l4-7-4-3-5-4-9 4zm55-1-4 4 3 6c10 18 13 41 14 78v25l9-7c21-16 44-26 77-33l11-3c2-1-16-19-27-28a331 331 0 0 0-79-45l-4 3zm-30 11-7 34c-2 10-3 26-1 26l8-7 9-8 10 8 8 6c3-1-1-28-6-49l-2-10h-19z"/><path d="m264 389-11 11v11c1 13 0 16-4 19-6 4-9 3-20-5-1 0-5 3-16 14l-14 15 29 29c27 28 30 30 36 32 4 2 7 2 13 2 13-1 14-2 46-34l29-29-15-14-15-15-4 3-7 4c-3 1-8 0-12-4-2-4-2-4-2-16l1-12-11-11-12-11-11 11zm-140 4c-10 10-12 13-10 20 1 5 46 50 51 51 7 1 8 0 32-23l22-23-22-13c-10-4-26-9-43-13-12-3-15-4-17-6l-3-3-10 10zm290-7-24 8-25 7c-10 3-27 12-31 15l-2 2 21 22 25 23h7c4 0 7-2 25-21 26-25 27-27 27-33v-5l-10-11-11-10-2 3zm161 80v36h39v-10h-29v-21h29v-10h-29v-21h29v-10h-39v36zm831-23v14l-4-3-11-2c-11 0-17 4-23 13-2 4-2 6-2 12 0 9 1 14 7 19 9 8 24 9 31 2 2-1 2-1 2 1 0 3 0 3 5 3h5v-72h-10v13zm-8 21c7 5 10 13 6 20-7 14-28 9-28-7 0-11 13-19 22-13zm118 2v36h39v-10h-29v-21h29v-10h-29v-21h29v-10h-39v36zm-334-19v8h-8v10h8v37h10v-37h8v-10h-8v-17h-10v9zm-503 8-4 1-5-1h-6v62h11v-19l5 3c11 6 26 0 32-12 4-7 4-16 1-22-2-5-8-11-13-13-6-3-16-2-21 1zm16 8c5 2 9 7 10 12 1 8-6 17-16 17-8 0-14-6-14-15 0-5 0-6 3-9 4-6 11-7 17-5zm70-8c-5 3-7 6-11 12-2 5-2 15 0 21 7 16 29 20 42 8 6-5 7-10 7-19s-2-14-8-19c-5-5-9-6-17-6-6 0-8 0-13 3zm20 9 6 5c2 3 2 4 2 9-1 5-1 7-4 10s-5 3-10 4c-5 0-6 0-9-2-7-5-9-14-5-20 5-8 13-10 20-6zm41-10c-6 2-12 10-14 15-3 11 0 22 9 29 11 8 27 6 36-5l3-4-5-2c-5-2-5-2-7 0-5 6-15 7-21 1-5-4-7-10-4-16 4-10 17-13 24-6 3 3 4 4 10 1l3-2-4-5-8-6c-6-3-17-3-22 0zm138 0c-5 2-11 8-13 13-3 6-2 16 1 22 8 17 31 19 43 4l3-4-6-2c-4-2-4-2-6 0-3 3-7 5-12 5l-6-1 13-14c8-7 14-14 14-15s-6-7-10-8c-5-3-17-2-22 0zm16 9-10 10c-10 10-10 10-10 8-2-7 2-15 9-18 3-1 11-2 11 0zm100-8c-8 5-12 12-12 22 0 11 5 19 15 24 9 4 21 2 29-6l4-5-5-3c-4-2-4-2-7 0l-5 4h-12l13-15 14-14-3-3c-4-5-10-7-18-7-7 0-8 0-13 3zm18 8-10 11-10 10v-6c0-9 7-16 16-16l4 1zm220-10c-16 7-20 30-7 42 8 9 23 10 31 3 2-1 2-1 2 1 0 3 0 3 5 3h5v-47h-5l-5 1-5-2c-5-2-15-3-21-1zm19 12c7 5 9 12 5 19-4 9-16 11-24 4-3-3-3-5-4-10 0-7 2-11 8-14 4-3 11-2 15 1zm104-11c-9 4-15 12-15 22 0 8 2 13 6 18 5 6 10 9 19 9 7 0 9-1 13-3l11-11-5-2-5-2-4 4c-2 2-5 3-7 3l-9-1 13-15 14-14-2-3-7-5c-6-3-17-3-22 0zm15 9-19 19v-10c1-3 5-7 8-9h11zm124-9c-6 2-12 10-14 15-2 7-1 14 2 20 6 12 21 18 32 12 5-3 5-3 5-1s1 2 5 2h6v-47h-6l-5 1-3-1c-4-3-17-4-23-1zm16 9c11 5 12 21 2 27-7 5-17 2-21-7-6-12 7-25 19-20zm-576-8-3 1-5-1h-5v47h10v-15c0-19 1-22 4-23 6-2 6-1 6 20v18h11v-18c0-15 0-18 2-19l3-2c4 1 5 4 5 22v17h10v-20c0-26-1-29-11-29l-8 2-4 3-1-3c-3-3-11-3-14 0zm119 1c-2 2-3 2-3 1 0-2-1-2-5-2h-5v47h10v-34l3-2c3-3 6-4 9-2 5 2 6 5 6 22v16h10v-18c0-16 0-18-2-22-3-6-8-9-15-9-4 0-6 1-8 3zm116-2-8 1h-6v47h11v-18c0-19 1-21 5-21s5 3 5 21v18h10v-18c0-15 0-18 2-19l3-2c4 1 5 4 5 22v17h10v-44l-3-3-8-2c-4 0-10 2-10 4l-3-1c-2-2-4-3-7-3l-6 1zm-513 2c-2 0-4 2-5 3-2 1-2 1-2-1 0-3 0-3-5-3h-5v47h10v-14c0-12 1-14 3-17s5-6 8-6c2 0 2-1 2-5 0-7-1-7-7-4zm196-1-5 3-2 2v-2c0-3 0-3-5-3h-5v47h10v-13c0-14 1-18 6-22l5-2c2 0 2 0 2-5 0-6-1-7-6-5zm698 1c-4 2-6 6-6 11 0 6 3 10 10 13 7 5 8 9 3 12-2 1-2 1-5-1-2-3-2-3-7-2-4 1-4 2-3 4 0 4 5 8 9 9 14 4 26-13 16-24l-7-6c-5-3-7-5-5-6 1-2 2-2 3-1h6l5-2-2-3c-2-5-11-8-17-4zm-767 14c0 20 2 26 10 30 6 3 17 2 22-1 7-5 8-8 8-27v-17h-11v32l-3 2c-4 4-8 4-12 0l-3-2v-32h-11v15zm795-14 8 18 8 17-5 11c-7 16-7 15-1 15h6l14-30 14-31-5-1h-6l-5 12-6 11-6-11-5-12h-5l-6 1zM623 474v5h30v-10h-30v5z"/></svg>