<?xml version="1.0" encoding="UTF-8"?>
<svg width="126px" height="28px" viewBox="0 0 126 28" version="1.1" xmlns="http://www.w3.org/2000/svg" xmlns:xlink="http://www.w3.org/1999/xlink">
    <!-- Generator: Sketch 64 (93537) - https://sketch.com -->
    <title>flow-step-logo</title>
    <desc>Created with Sketch.</desc>
    <defs>
        <linearGradient x1="-14.917%" y1="-32.145%" x2="100%" y2="141.886%" id="linearGradient-1">
            <stop stop-color="#FFFFFF" stop-opacity="0.5" offset="0%"></stop>
            <stop stop-color="#000000" stop-opacity="0.5" offset="100%"></stop>
        </linearGradient>
    </defs>
    <g id="Page-1" stroke="none" stroke-width="1" fill="none" fill-rule="evenodd">
        <g id="flow-step-logo" fill-rule="nonzero">
            <path d="M38.701,19.098 L38.701,13.24 L44.37,13.24 L44.37,10.558 L38.7,10.558 L38.7,7.588 L45.072,7.588 L45.072,4.905 L35.473,4.905 L35.473,19.098 L38.7,19.098 L38.701,19.098 Z M51.921,16.784 C51.548,16.756 51.251,16.694 51.031,16.599 C50.811,16.504 50.641,16.381 50.524,16.231 C50.407,16.081 50.327,15.896 50.286,15.678 C50.245,15.459 50.224,15.213 50.224,14.94 L50.223,4.888 L47.125,4.888 L47.142,15.555 C47.142,16.128 47.2,16.644 47.318,17.101 C47.435,17.558 47.655,17.947 47.98,18.268 C48.304,18.589 48.745,18.838 49.303,19.016 C49.862,19.193 50.59,19.289 51.486,19.303 L51.92,16.783 L51.921,16.784 Z M58.52,19.384 C59.333,19.384 60.068,19.248 60.723,18.974 C61.378,18.702 61.94,18.316 62.409,17.818 C62.878,17.319 63.236,16.718 63.484,16.015 C63.733,15.312 63.857,14.538 63.857,13.691 C63.857,12.844 63.726,12.073 63.464,11.377 C63.202,10.68 62.836,10.087 62.367,9.595 C61.898,9.103 61.337,8.721 60.681,8.448 C60.026,8.175 59.306,8.038 58.52,8.038 C57.747,8.038 57.034,8.175 56.378,8.448 C55.723,8.721 55.158,9.103 54.682,9.595 C54.206,10.086 53.834,10.68 53.565,11.377 C53.296,12.073 53.162,12.844 53.162,13.691 C53.162,14.538 53.292,15.312 53.555,16.015 C53.817,16.719 54.182,17.319 54.651,17.818 C55.12,18.316 55.682,18.702 56.337,18.975 C56.992,19.248 57.72,19.385 58.52,19.385 L58.52,19.384 Z M58.52,16.763 C57.816,16.763 57.271,16.487 56.885,15.933 C56.499,15.381 56.306,14.633 56.306,13.691 C56.306,12.749 56.499,12.008 56.886,11.469 C57.271,10.929 57.816,10.659 58.52,10.659 C59.223,10.659 59.764,10.929 60.143,11.469 C60.523,12.009 60.713,12.749 60.713,13.691 C60.713,14.633 60.523,15.381 60.143,15.934 C59.764,16.487 59.223,16.763 58.52,16.763 Z M70.994,19.098 C71.339,18.06 71.666,17.029 71.976,16.005 C72.286,14.981 72.58,13.95 72.856,12.913 C73.131,13.95 73.435,14.981 73.766,16.005 C74.096,17.029 74.435,18.06 74.779,19.098 L77.179,19.098 C77.427,18.524 77.699,17.842 77.996,17.05 C78.293,16.258 78.596,15.394 78.906,14.459 C79.216,13.524 79.534,12.534 79.858,11.489 C80.182,10.445 80.496,9.39 80.799,8.325 L77.593,8.325 L77.231,9.933 C77.1,10.513 76.962,11.11 76.817,11.725 C76.672,12.339 76.517,12.957 76.352,13.578 C76.186,14.2 76.021,14.797 75.855,15.37 C75.675,14.77 75.504,14.155 75.338,13.527 C75.173,12.899 75.014,12.281 74.862,11.674 C74.711,11.066 74.566,10.479 74.428,9.912 C74.29,9.346 74.166,8.817 74.055,8.325 L71.821,8.325 C71.711,8.817 71.583,9.345 71.439,9.912 C71.294,10.479 71.142,11.066 70.983,11.674 C70.825,12.281 70.659,12.899 70.487,13.527 C70.315,14.155 70.139,14.77 69.959,15.37 C69.794,14.797 69.632,14.2 69.473,13.578 C69.315,12.958 69.163,12.339 69.018,11.725 C68.873,11.11 68.735,10.513 68.604,9.933 L68.242,8.325 L64.995,8.325 C65.298,9.39 65.612,10.445 65.935,11.489 C66.26,12.534 66.577,13.524 66.887,14.459 C67.197,15.394 67.497,16.258 67.787,17.049 C68.077,17.842 68.346,18.524 68.594,19.098 L70.994,19.098 Z M86.571,19.384 C88.461,19.384 89.874,19.019 90.811,18.289 C91.75,17.559 92.219,16.531 92.219,15.207 C92.219,14.524 92.129,13.944 91.949,13.466 C91.77,12.988 91.498,12.571 91.133,12.216 C90.767,11.861 90.308,11.551 89.757,11.285 C89.205,11.018 88.557,10.749 87.812,10.475 C87.454,10.353 87.126,10.233 86.83,10.117 C86.533,10.001 86.271,9.871 86.044,9.728 C85.816,9.585 85.64,9.424 85.516,9.247 C85.392,9.069 85.33,8.851 85.33,8.591 C85.33,8.155 85.499,7.831 85.837,7.619 C86.175,7.407 86.73,7.301 87.502,7.301 C88.192,7.301 88.782,7.38 89.271,7.537 C89.761,7.694 90.205,7.875 90.605,8.079 L91.535,5.56 C91.081,5.315 90.502,5.09 89.798,4.885 C89.095,4.68 88.26,4.577 87.295,4.577 C86.481,4.577 85.75,4.677 85.102,4.874 C84.454,5.072 83.902,5.356 83.447,5.724 C82.992,6.093 82.641,6.54 82.392,7.066 C82.144,7.591 82.02,8.182 82.02,8.837 C82.02,9.493 82.137,10.049 82.372,10.507 C82.606,10.964 82.909,11.353 83.282,11.674 C83.654,11.994 84.075,12.261 84.544,12.472 C85.013,12.684 85.482,12.872 85.95,13.036 C87.026,13.391 87.785,13.722 88.226,14.029 C88.667,14.336 88.888,14.722 88.888,15.186 C88.888,15.405 88.854,15.602 88.785,15.78 C88.715,15.957 88.591,16.111 88.412,16.24 C88.232,16.37 87.995,16.473 87.698,16.548 C87.402,16.623 87.026,16.661 86.571,16.661 C85.661,16.661 84.892,16.568 84.264,16.384 C83.637,16.2 83.109,15.992 82.682,15.759 L81.772,18.299 C81.965,18.409 82.202,18.524 82.485,18.647 C82.768,18.77 83.106,18.887 83.499,18.995 C83.892,19.105 84.344,19.197 84.854,19.272 C85.364,19.347 85.937,19.384 86.571,19.384 L86.571,19.384 Z M98.694,19.344 C99.356,19.344 99.914,19.289 100.369,19.18 C100.824,19.07 101.239,18.94 101.61,18.79 L101.176,16.415 C100.886,16.525 100.566,16.609 100.214,16.671 C99.862,16.732 99.521,16.763 99.19,16.763 C98.5,16.763 98.042,16.572 97.814,16.19 C97.587,15.807 97.474,15.295 97.474,14.654 L97.474,10.864 L101.176,10.864 L101.176,8.326 L97.473,8.326 L97.475,4.889 L94.377,4.889 L94.391,14.696 C94.391,15.392 94.456,16.026 94.587,16.6 C94.718,17.174 94.949,17.662 95.28,18.065 C95.611,18.467 96.053,18.781 96.604,19.007 C97.156,19.232 97.852,19.345 98.694,19.345 L98.694,19.344 Z M108.913,19.384 C109.299,19.384 109.685,19.364 110.071,19.323 C110.458,19.283 110.82,19.231 111.158,19.169 C111.495,19.108 111.802,19.036 112.078,18.954 C112.354,18.872 112.575,18.791 112.74,18.709 L112.326,16.231 C111.982,16.381 111.536,16.507 110.992,16.609 C110.447,16.712 109.892,16.763 109.327,16.763 C108.444,16.763 107.741,16.579 107.217,16.21 C106.693,15.841 106.397,15.343 106.327,14.715 L113.319,14.715 C113.333,14.551 113.347,14.363 113.361,14.152 C113.374,13.94 113.381,13.746 113.381,13.568 C113.381,11.752 112.933,10.377 112.037,9.441 C111.14,8.506 109.92,8.038 108.375,8.038 C107.713,8.038 107.068,8.161 106.441,8.408 C105.813,8.653 105.258,9.015 104.776,9.493 C104.293,9.97 103.903,10.568 103.606,11.285 C103.31,12.001 103.162,12.838 103.162,13.793 C103.162,14.585 103.276,15.323 103.503,16.005 C103.731,16.688 104.083,17.278 104.558,17.777 C105.034,18.275 105.634,18.667 106.358,18.954 C107.082,19.241 107.934,19.384 108.913,19.384 L108.913,19.384 Z M106.327,12.626 C106.368,12.366 106.434,12.111 106.524,11.858 C106.614,11.605 106.741,11.384 106.906,11.192 C107.072,11.002 107.279,10.848 107.527,10.732 C107.775,10.616 108.072,10.558 108.417,10.558 C108.775,10.558 109.075,10.619 109.317,10.742 C109.557,10.865 109.757,11.022 109.917,11.212 C110.075,11.404 110.192,11.622 110.268,11.868 C110.344,12.114 110.388,12.367 110.402,12.626 L106.327,12.626 Z M118.843,22.886 L118.843,18.832 C119.188,18.982 119.546,19.098 119.918,19.18 C120.291,19.262 120.691,19.303 121.118,19.303 C121.891,19.303 122.573,19.166 123.166,18.893 C123.759,18.62 124.256,18.238 124.656,17.746 C125.056,17.255 125.359,16.667 125.566,15.985 C125.773,15.302 125.876,14.545 125.876,13.711 C125.876,12.851 125.749,12.073 125.494,11.377 C125.238,10.68 124.87,10.09 124.387,9.605 C123.904,9.121 123.311,8.745 122.607,8.479 C121.904,8.213 121.105,8.079 120.208,8.079 C119.836,8.079 119.446,8.096 119.039,8.131 C118.632,8.165 118.232,8.209 117.839,8.264 C117.446,8.318 117.071,8.384 116.712,8.458 C116.353,8.533 116.036,8.612 115.76,8.694 L115.76,22.887 L118.843,22.887 L118.843,22.886 Z M120.539,16.722 C120.222,16.722 119.909,16.682 119.598,16.599 C119.288,16.517 119.036,16.415 118.843,16.292 L118.843,10.782 C118.994,10.756 119.188,10.732 119.422,10.712 C119.656,10.691 119.912,10.68 120.187,10.68 C121.029,10.68 121.663,10.964 122.091,11.53 C122.518,12.097 122.731,12.851 122.731,13.793 C122.731,15.746 122.001,16.723 120.539,16.723 L120.539,16.722 Z" id="Shape" fill="#FFFFFF"></path>
            <g id="Group">
                <g id="pnqtmquk3a-link" fill="#7C89FF">
                    <path d="M24.718,0 C26.234,0 27.464,1.23 27.464,2.746 L27.464,17.737 C27.464,23.109 23.109,27.464 17.737,27.464 L2.747,27.464 C1.23,27.464 0,26.234 0,24.718 L0,2.746 C0,1.23 1.23,0 2.746,0 L24.718,0 Z M19.624,12.746 L14.58,12.746 C8.705,12.746 3.943,17.509 3.943,23.384 L3.943,23.429 L9.812,23.429 C9.812,20.745 11.988,18.569 14.672,18.569 L19.624,18.569 L19.624,12.746 L19.624,12.746 Z M23.521,3.897 L3.943,3.897 C3.943,7.164 6.591,9.812 9.858,9.812 L23.52,9.812 L23.52,3.897 L23.521,3.897 Z" id="pnqtmquk3a"></path>
                </g>
                <g id="pnqtmquk3a-link" style="mix-blend-mode: overlay;" fill="url(#linearGradient-1)">
                    <path d="M24.718,0 C26.234,0 27.464,1.23 27.464,2.746 L27.464,17.737 C27.464,23.109 23.109,27.464 17.737,27.464 L2.747,27.464 C1.23,27.464 0,26.234 0,24.718 L0,2.746 C0,1.23 1.23,0 2.746,0 L24.718,0 Z M19.624,12.746 L14.58,12.746 C8.705,12.746 3.943,17.509 3.943,23.384 L3.943,23.429 L9.812,23.429 C9.812,20.745 11.988,18.569 14.672,18.569 L19.624,18.569 L19.624,12.746 L19.624,12.746 Z M23.521,3.897 L3.943,3.897 C3.943,7.164 6.591,9.812 9.858,9.812 L23.52,9.812 L23.52,3.897 L23.521,3.897 Z" id="pnqtmquk3a"></path>
                </g>
            </g>
        </g>
    </g>
</svg>
