<svg width="95px" height="56px" viewBox="0 0 1011 598" fill="none" xmlns="http://www.w3.org/2000/svg" class="sc-dIsAE kwpOrE"><path d="M685.029 161.127C684 161.817 683.038 162.461 682.16 163.054C688.59 153.52 697.055 147.746 706.734 141.144C709.412 139.317 712.166 137.44 714.989 135.404C714.87 135.935 714.664 136.444 714.38 136.908C709.895 144.478 694.329 154.9 685.029 161.127Z" fill="url(#paint0_linear)"></path><path d="M686.519 149.893C684.973 151.026 683.556 152.064 682.347 152.969C687.622 142.743 696.409 136.972 705.675 130.886C708.495 129.033 711.395 127.129 714.274 125.053C714.009 125.872 713.608 126.64 713.088 127.326C707.836 134.278 695.008 143.675 686.519 149.893Z" fill="url(#paint1_linear)"></path><path d="M692.859 161.16L693.234 160.918C694.315 160.225 695.353 159.517 696.357 158.832C699.918 156.401 703.278 154.106 707.346 153.376C704.552 158.537 691.207 165.894 683.038 170.399C681.713 171.129 680.493 171.802 679.441 172.397C682.538 167.776 688.419 164.007 692.859 161.16Z" fill="url(#paint2_linear)"></path><path d="M683.612 141.983C678.984 147.399 667.324 160.462 656.167 168.297C656.288 167.876 656.408 167.456 656.529 167.037C657.644 163.148 658.793 159.146 660.04 155.254C660.94 152.45 666.328 147.988 669.895 145.035C671.212 143.944 672.348 143.003 673.163 142.245C679.505 136.34 693.166 124.862 697.594 122.543C697.259 123.402 696.437 125.058 694.416 128.055C691.068 132.889 687.461 137.538 683.612 141.983V141.983Z" fill="url(#paint3_linear)"></path><path d="M886.704 162.41C885.163 161.074 884.623 159.71 885.006 158.116C886.195 153.165 895.967 147.791 899.775 146.847C911.251 144.004 919.065 136.624 927.338 128.811C928.411 127.797 929.489 126.779 930.577 125.771C938.858 118.092 950.47 113.016 961.699 108.106C963.228 107.438 964.791 106.756 966.331 106.07C960.818 113.987 953.335 119.867 946.082 125.566C940.292 130.115 934.306 134.819 929.225 140.573C925.528 144.759 923.981 149.832 922.484 154.738C921.584 157.693 920.65 160.748 919.257 163.552C916.135 169.834 911.527 175.877 905.19 181.989C905.19 181.616 905.192 181.23 905.194 180.835C905.219 176.382 905.249 170.863 902.551 168.026C900.227 165.583 896.999 165.153 893.877 164.737C891.271 164.388 888.572 164.029 886.704 162.41Z" fill="url(#paint4_linear)"></path><path d="M623.883 196.723V196.094C623.182 196.11 622.481 196.047 621.793 195.908C628.105 191.517 634.944 187.966 641.568 184.527C652.156 179.031 663.079 173.36 672.006 164.171C671.403 167.465 670.468 172.06 670.105 173.17C668.464 178.189 663.917 183.366 657.942 187.017C654.324 189.227 632.878 196.094 623.884 196.095L623.883 196.723Z" fill="url(#paint5_linear)"></path><path d="M577.832 215.992C581.619 214.521 585.534 213.001 589.607 211.326C591.116 210.704 592.81 209.92 594.772 209.012C601.614 205.845 610.762 201.611 621.771 199.819C603.232 210.223 582.497 221.49 561.338 222.813C566.041 220.57 571.555 218.43 577.832 215.992Z" fill="url(#paint6_linear)"></path><path d="M995.199 88.4704C993.464 89.2451 991.622 89.9244 989.841 90.5821C985.379 92.2269 980.791 93.9176 977.259 97.3157C979.237 91.6002 983.093 85.9955 985.419 83.9142C990.287 79.5523 996.703 75.1558 1000.06 75.1558C1000.42 75.1461 1000.79 75.214 1001.12 75.3552C1002.89 76.1597 1003.75 77.2128 1003.74 78.5747C1003.73 82.1525 998.191 87.1341 995.199 88.4704Z" fill="url(#paint7_linear)"></path><path d="M529.735 200.984C526.552 203.278 523.408 205.769 520.368 208.177C514.366 212.93 508.16 217.845 501.397 221.462C492.068 226.451 481.293 226.664 470.872 226.869C469.787 226.891 459.647 227.146 456.651 227.146H456.648C448.385 227.146 438.972 226.612 430.635 222.936L431.318 222.97C434.399 223.119 438.204 223.302 442.207 223.302C454.673 223.302 463.613 221.453 469.539 217.648C474.106 214.716 476.874 211.044 477.765 206.733C479.697 197.391 472.634 186.894 466.959 178.46C466.793 178.213 466.629 177.968 466.466 177.726C496.98 177.737 527.155 181.173 557.923 185.062C555.24 186.524 552.531 187.919 549.897 189.276C543.145 192.753 536.167 196.349 529.735 200.984Z" fill="url(#paint8_linear)"></path><path d="M974.286 137.949C976.027 137.014 977.811 136.056 979.494 135.084C985.58 131.526 990.886 126.776 995.094 121.12C996.314 119.507 997.295 116.482 998.245 113.557C998.763 111.849 999.366 110.169 1000.05 108.523C1002.38 120.237 1002.8 130.298 990.072 135.843C978.16 141.036 967.411 146.849 954.42 155.138C957.905 146.741 966.224 142.276 974.286 137.949Z" fill="url(#paint9_linear)"></path><path d="M922.477 174.82C925.423 172.056 927.964 169.671 929.002 168.123C930.332 166.14 931.474 164.24 932.579 162.402C937.073 154.927 940.647 148.984 951.531 147.818C947.977 162.877 940.63 193.347 922.907 193.349L922.905 193.978V193.349C919.377 193.349 915.527 192.121 911.461 189.699C911.302 189.624 911.165 189.51 911.062 189.367C910.96 189.224 910.896 189.057 910.877 188.882C910.563 186.003 917.733 179.273 922.477 174.82Z" fill="url(#paint10_linear)"></path><path d="M1007.58 87.0136C1007.59 87.2088 1007.59 87.3598 1007.59 87.5024C1007.52 92.4719 1004.15 97.927 1000.13 99.705C998.19 96.955 998.739 94.2845 999.57 92.4961C1001.41 88.5403 1005.54 86.1194 1007.18 86.1194C1007.31 86.1036 1007.44 86.1294 1007.55 86.1931C1007.64 86.408 1007.65 86.6463 1007.59 86.8714L1007.58 87.0136Z" fill="url(#paint11_linear)"></path><path d="M1010.5 96.5555C1011.61 98.2393 1010.62 100.681 1009.93 101.991C1008.31 105.053 1005.66 107.353 1004.7 107.685C1004.36 107.027 1004.39 105.584 1005.41 103.229C1006.99 99.6102 1009.59 96.812 1010.5 96.5555Z" fill="url(#paint12_linear)"></path><path d="M992.237 95.777C1000.25 111.311 986.235 123.786 973.07 131.515C964.574 136.503 955.213 139.741 948.007 142.004C937.213 145.394 932.817 148.429 928.665 156.154C929.513 151.125 932.335 146.508 933.457 145.063C936.89 140.637 941.936 137.282 946.816 134.038C949.037 132.562 951.332 131.037 953.418 129.441C954.477 128.632 957.168 125.943 960.893 122.222C969.513 113.613 987.445 95.7008 992.001 95.7008C992.197 95.7008 992.215 95.7361 992.237 95.777Z" fill="url(#paint13_linear)"></path><path d="M1010.29 108.568C1010.48 112.304 1008.61 113.791 1006.03 115.838L1005.68 116.119C1005.8 113.73 1007.28 111.556 1007.79 110.873C1008.86 109.446 1009.82 108.782 1010.29 108.568Z" fill="url(#paint14_linear)"></path><path d="M655.145 139.989C654.404 143.102 654.027 146.325 653.664 149.444C653.119 154.114 652.556 158.937 650.754 163.281C646.36 173.862 635.639 180.024 625.271 185.984C621.032 188.421 617.04 190.716 613.446 193.298C598.459 204.064 578.664 211.563 561.287 217.748C548.35 222.352 531.696 227.637 517.627 227.637V228.267V227.637C514.254 227.68 510.889 227.292 507.614 226.482C513.007 221.803 538.132 204.441 542.016 202.322C559.655 192.698 572.967 187.251 592.766 186.017C593.634 185.963 594.628 185.938 595.896 185.938C596.681 185.938 597.488 185.947 598.309 185.956C604.32 186.026 610.956 186.054 615.464 182.826C619.257 180.109 621.527 175.335 623.722 170.717C625.151 167.713 626.628 164.606 628.452 162.315C630.918 159.217 634.018 156.511 637.017 153.894C640.262 151.061 643.619 148.132 646.236 144.663C650.704 138.739 652.816 134.566 655.739 128.791L655.774 128.719C656.2 127.876 656.644 127 657.115 126.079C659.798 128.847 658.628 131.433 657.045 134.927C656.249 136.549 655.613 138.244 655.145 139.989Z" fill="url(#paint15_linear)"></path><path d="M291.813 52.9318C290.266 57.0047 288.514 61.6159 286.047 65.1051C282.569 70.0257 277.37 72.736 271.409 72.7363C269.358 72.7227 267.319 72.4368 265.344 71.8861C261.674 70.8873 261.083 67.2354 260.457 63.37C260.01 60.6085 259.587 58 257.876 56.5744C254.952 54.14 248.538 50.0201 243.039 50.0201C241.643 49.9948 240.262 50.3089 239.015 50.9354C234.999 53.0291 232.381 59.9763 230.276 65.5585C229.546 67.4972 228.915 69.1692 228.338 70.349C227.363 72.3338 226.388 74.3176 225.412 76.3003L225.34 76.4471C221.724 83.7993 217.986 91.4022 214.374 98.9109C204.084 120.3 198.468 140.256 196.776 161.52C189.518 147.021 186.066 125.69 188.54 109.804C190.27 98.6984 197.56 94.063 205.28 89.1551C211.204 85.3893 217.327 81.4969 221.58 74.5206C228.111 63.8062 229.139 53.7616 230.227 43.1275C230.711 38.3848 231.213 33.4801 232.232 28.3597C235.694 10.9629 246.356 5.155 262.454 1.62115C264.652 18.8265 275.329 32.3862 295.973 44.2C294.433 46.0369 293.208 49.2616 291.813 52.9318Z" fill="url(#paint16_linear)"></path><path d="M464.386 210.151C456.902 216.151 447.551 216.158 438.508 216.165C437.049 216.165 435.546 216.167 434.068 216.192C432.271 216.223 430.479 216.258 428.693 216.296C424.363 216.385 419.887 216.477 415.497 216.477C409.316 216.477 404.093 216.291 399.259 215.896C401.855 214.577 404.636 213.398 407.342 212.251C413.842 209.496 420.561 206.648 425.42 201.711C429.545 197.522 433.137 191.429 435.536 184.555C437.584 178.688 438.677 172.515 438.652 167.026C463.701 182.738 469.414 193.433 469.781 199.649C470.012 203.562 468.197 207.095 464.386 210.151Z" fill="url(#paint17_linear)"></path><path d="M250.142 172.867C245.361 159.393 240.424 145.481 241.446 131.573L241.861 132.057C247.146 138.233 262.921 156.667 278.705 160.923C270.018 169.542 262.263 179.054 255.57 189.299C254.037 183.844 252.059 178.27 250.142 172.867Z" fill="url(#paint18_linear)"></path><path d="M180.503 133.232C182.584 149.934 189.781 166.163 200.246 177.758C215.472 194.627 234.179 200.597 253.984 206.917C261.266 209.24 268.795 211.643 276.181 214.64C294.283 221.983 328.868 232.928 337.776 259.917C341.353 270.752 341.44 286.016 333.975 294.731C331.481 297.643 310.109 322.983 296.906 332.656C296.616 331.202 296.313 329.852 296.04 328.638C295.6 326.677 291.229 310.238 288.092 304.044L287.558 302.988C281.501 290.992 271.22 280.63 261.209 271.044C241.543 252.212 218.213 237.499 191.873 227.31C190.204 226.665 188.288 226.007 186.26 225.31C177.196 222.198 164.781 217.937 161.501 209.829C158.247 201.787 161.086 189.811 163.363 180.188C163.917 177.854 164.429 175.686 164.83 173.706C168.376 156.155 171.325 141.95 174.114 129.004C174.441 127.484 174.753 125.908 175.054 124.385C176.833 115.38 178.882 120.223 180.503 133.232Z" fill="url(#paint19_linear)"></path><path d="M281.156 81.6454C279.006 80.3108 276.923 78.7565 274.908 77.253L274.666 77.0737C278.514 76.7434 284.151 76.2196 287.362 73.6904C291.612 70.3418 293.658 64.8413 295.636 59.5215C296.433 57.2274 297.366 54.9824 298.428 52.7982C299.648 50.4442 301.682 49.2484 304.472 49.2484C315.287 49.2484 332.796 65.1958 336.378 70.2618C337.67 72.09 336.862 74.5597 335.955 76.31C332.811 82.3834 323.642 89.3088 318.742 89.3102V89.9396V89.3102C318.614 89.3102 318.49 89.305 318.369 89.2943C314.255 88.9332 310.668 87.1092 306.871 85.1785C302.821 83.1201 298.638 80.9935 293.699 80.7162C292.186 80.6293 290.395 81.0212 288.506 81.4383C286.815 81.8119 285.067 82.1979 283.571 82.1979C282.73 82.2427 281.894 82.0513 281.156 81.6454Z" fill="url(#paint20_linear)"></path><path d="M241.87 167.521C245.194 177.326 248.626 187.451 248.855 197.866C245.632 196.622 242.857 195.573 240.385 194.64C229.679 190.597 225.251 188.926 217.571 183.805C206.19 176.217 202.377 170.912 203.655 156.239C206.182 127.251 220.301 98.8642 232.572 77.1418C232.908 78.0205 233.245 78.8991 233.582 79.7777C234.748 82.8182 235.948 85.9495 237.119 89.072C239.263 94.7945 238.556 97.5238 237.271 102.478C236.99 103.563 236.673 104.784 236.366 106.133C234.232 115.484 233.731 125.952 234.788 139.075C235.585 148.977 238.78 158.405 241.87 167.521Z" fill="url(#paint21_linear)"></path><path d="M240.174 57.7019C240.437 57.7089 240.696 57.7634 240.939 57.8629C248.513 64.4729 248.402 79.2754 243.322 88.181C238.406 82.31 235.96 65.9843 238.302 59.69C238.794 58.3711 239.424 57.7019 240.174 57.7019Z" fill="url(#paint22_linear)"></path><path d="M335.866 61.431C331.648 57.8795 325.273 52.5126 322.181 50.4684C316.986 47.0339 311.172 44.1932 305.55 41.4458C301.789 39.6083 297.905 37.7098 294.313 35.6801C288.269 32.2657 269.836 16.4534 269.477 6.4276C269.391 4.04655 270.318 2.29659 272.393 0.919466C273.312 0.30949 274.738 0 276.632 0C283.541 0 294.287 4.08291 298.874 5.82664L299.339 6.00248C308.706 9.55398 316.963 15.1044 323.217 22.054C334.018 34.0524 338.899 47.5639 338.125 63.326C337.46 62.7721 336.655 62.0943 335.866 61.431Z" fill="url(#paint23_linear)"></path><path d="M403.926 289.453C402.387 268.169 415.354 263.252 435.312 258.18C445.375 255.622 455.321 252.145 464.945 248.782C473.767 245.698 482.869 242.516 492.051 240.054C491.717 240.4 491.357 240.773 490.978 241.168L490.931 241.216C483.715 248.686 468.701 264.228 462.057 275.936C456.103 286.429 453.97 297.825 451.905 308.846C450.476 316.474 448.999 324.359 446.266 331.887C434.879 363.247 397.627 383.065 364.935 389.168C375.018 380.564 386.946 369.863 393.488 354.256C402.407 332.971 405.627 312.986 403.926 289.453Z" fill="url(#paint24_linear)"></path><path d="M307.53 91.9994C308.734 92.5817 309.972 93.1799 311.228 93.7535C310.759 94.2517 310.257 94.7983 309.767 95.3328C307.391 97.925 303.413 102.263 301.501 102.263C301.42 102.267 301.339 102.255 301.264 102.226C301.188 102.197 301.12 102.153 301.062 102.096C296.958 98.1739 292.904 94.054 288.982 90.0694L288.948 90.0348C288.204 89.2783 287.459 88.5219 286.713 87.7656C288.368 87.2772 290.084 87.03 291.809 87.0317C297.251 87.0313 302.244 89.4446 307.53 91.9994Z" fill="#FFB050"></path><path d="M404.889 202.833C393.895 207.545 385.278 210.995 376.952 214.02C372.31 215.706 366.367 218.193 361.58 222.496C361.392 222.692 361.162 222.844 360.907 222.939L360.897 222.927C360.638 222.658 359.812 221.27 360.07 214.713C360.08 214.46 360.087 214.278 360.087 214.188C360.078 200.111 367.515 173.405 381.498 159.878C387.697 153.882 396.626 146.644 403.965 146.213C404.112 146.204 404.264 146.2 404.419 146.2C411.542 146.2 426.183 154.455 430.643 159.247C436.096 165.105 430.49 178.04 426.763 184.061C421.435 192.668 414.28 198.809 404.889 202.833Z" fill="url(#paint25_linear)"></path><path d="M311.8 126.359C309.603 127.301 307.331 128.276 305.539 130.083C302.03 133.623 299.481 137.835 297.014 141.908C292.97 148.587 289.48 154.352 283.155 154.353L283.153 154.983V154.353C279.864 154.353 275.95 152.858 271.19 149.783C259.641 142.324 240.732 125.696 243.111 110.692C243.949 105.406 245.639 100.149 247.275 95.0645C251.407 82.2121 255.315 70.052 247.216 56.7918C253.562 57.7559 254.024 61.2759 254.703 66.4441C254.918 68.4511 255.288 70.4384 255.811 72.3881C257.369 77.7619 263.721 80.6293 269.864 83.4026C273.698 85.1335 277.318 86.7682 279.591 88.8799C280.993 90.183 282.735 92.4061 284.75 94.9803C289.665 101.254 295.779 109.062 301.643 109.062C301.805 109.062 301.965 109.056 302.123 109.044C306.561 108.722 309.411 105.711 312.428 102.523C315.424 99.3582 318.506 96.1027 323.306 95.8025C321.736 100.489 318.845 112.499 318.26 119.908C317.956 123.719 315.24 124.884 311.8 126.359Z" fill="url(#paint26_linear)"></path><path d="M355.919 197.374C353.178 215.227 355.628 229.682 358.223 244.985L358.424 246.172C359.524 252.668 356.877 263.142 354.023 266.519C353.723 266.921 353.323 267.236 352.863 267.434C351.345 264.917 350.312 262.098 349.222 259.121C347.954 255.659 346.644 252.082 344.477 248.897C342.601 246.139 340.096 243.613 337.674 241.169C333.911 237.373 330.023 233.451 328.52 228.676C322.449 209.373 321.025 188.493 324.288 166.614C326.233 153.572 332.036 130.541 349.049 122.814C351.156 121.896 353.436 121.441 355.734 121.479C366.693 121.479 380.871 130.134 391.223 136.452C393.706 137.968 396.072 139.412 398.183 140.611C372.608 152.108 360.331 168.64 355.919 197.374Z" fill="url(#paint27_linear)"></path><path d="M328.455 133.989C320.581 144.547 317.715 166.992 316.707 179.431C315.319 196.561 312.449 208.765 314.48 219.62L273.646 205.323C272.056 204.619 270.43 204.001 268.774 203.471C262.894 201.473 259.91 200.193 261.634 195.08C263.977 188.138 268.011 181.577 273.625 175.581C277.485 171.458 281.662 168.023 285.703 164.702C293.792 158.05 298.262 152.948 305.628 141.953C307.084 139.779 314.062 133.258 322.87 127.154C329.724 122.401 337.073 119.773 339.53 119.773C339.624 119.772 339.717 119.777 339.81 119.788C339.763 119.858 339.712 119.924 339.657 119.988C337.488 122.538 329.227 132.954 328.455 133.989Z" fill="url(#paint28_linear)"></path><path d="M82.8967 280.914C82.429 280.052 81.9482 279.167 81.485 278.278C82.3214 277.891 83.2336 277.494 84.0675 277.494C84.685 277.495 85.2777 277.737 85.7181 278.17C89.1893 281.311 92.2589 287.948 91.1646 293.194C90.9744 294.233 90.5631 295.218 89.9586 296.084C89.354 296.95 88.5704 297.676 87.6609 298.212C88.8168 291.805 85.9483 286.527 82.9226 280.961L82.8967 280.914Z" fill="#95C709"></path><path d="M69.3995 247.441C55.226 246.034 52.6411 241.957 48.3592 226.722C42.8915 207.273 37.965 191.224 32.9007 176.37C37.2217 178.378 45.8077 182.394 49.9412 185.696C53.3954 188.456 53.1496 196.258 52.9696 201.956C52.927 203.299 52.8869 204.568 52.9052 205.607C53.2358 224.274 59.4356 235.619 69.3995 247.441Z" fill="url(#paint29_linear)"></path><path d="M99.7559 271.016C101.247 271.73 107.282 279.006 106.995 283.968C106.905 285.501 106.253 286.437 104.906 286.916C98.2479 274.411 98.868 271.634 99.4561 271.021C99.4513 271.008 99.5039 270.99 99.7559 271.016Z" fill="#95C709"></path><path d="M99.2305 281.444C100.493 284.659 100.454 287.613 99.1571 289.717C98.5249 288.579 97.5906 287.125 96.4752 285.39C94.251 281.928 91.5158 277.673 89.9067 273.897C90.1105 273.874 90.3154 273.863 90.5205 273.862C94.4593 273.862 97.7973 277.792 99.2305 281.444Z" fill="#95C709"></path><path d="M68.8106 167.697C62.9434 162.079 54.0773 153.59 47.3396 144.379C39.4466 133.586 36.3111 124.271 38.0227 116.693C39.5317 110.013 47.6604 105.044 62.1839 101.921C75.4161 99.0761 89.7526 98.7863 93.831 98.7652C98.0824 98.7437 102.424 98.733 107.103 98.733C118.618 98.733 130.33 98.7988 141.657 98.8621H141.712C152.394 98.922 163.426 98.984 174.318 98.9909C171.536 102.442 165.51 105.269 156.766 107.207C149.158 108.814 141.408 109.661 133.632 109.734C133.455 109.734 133.284 109.734 133.117 109.731C129.372 109.7 125.194 108.956 121.154 108.236C116.937 107.486 112.583 106.71 108.601 106.71C99.8833 106.71 94.6237 110.563 92.0485 118.837C87.4789 133.519 93.6914 149.187 99.1719 163.01L99.6891 164.315C102.266 170.827 105.029 177.301 107.7 183.561C111.283 191.959 114.977 200.616 118.239 209.405C113.04 205.397 102.148 196.67 98.7391 193.85C88.1698 185.107 78.6875 177.164 69.6681 168.518L68.8106 167.697Z" fill="url(#paint30_linear)"></path><path d="M315.532 326.559C335.291 306.32 352.89 282.801 367.848 256.651C369.641 258.629 372.638 262.77 374.799 268.348C377.599 275.575 379.863 287.42 374.748 302.803C368.482 321.65 359.608 335.817 344.122 351.701C327.064 369.197 311.28 381.074 294.449 389.081L293.909 389.338C287.02 392.616 281.076 395.445 274.509 395.445C271.716 395.436 268.947 394.922 266.336 393.928C257.424 390.624 252.78 386.732 246.108 379.409C271.307 365.714 294.662 347.936 315.532 326.559Z" fill="url(#paint31_linear)"></path><path d="M96.9954 126.961C97.7916 116.123 102.656 114.628 107.796 114.628C110.834 114.628 114.255 115.267 117.877 115.944C120.501 116.434 152.242 119.742 163.368 115.731C173.081 112.229 163.88 141.65 162.002 150.897C158.968 165.842 156.284 181.669 153.798 199.282C152.372 209.382 156.597 217.665 166.715 224.601C175.326 230.505 187.067 234.625 197.426 238.261C204.831 240.861 211.821 243.316 216.717 246.06C231.897 254.574 268.818 277.93 283.756 310.863C288.627 321.601 285.56 339.075 278.118 347.092L278.053 347.143C267.589 355.414 256.769 363.968 244.329 369.847C244.222 369.902 244.103 369.932 243.983 369.934V369.934C240.955 369.934 237.284 354.675 235.519 347.341C234.409 342.728 233.452 338.751 232.595 336.622C225.783 319.705 212.759 307.633 200.162 295.958C188.68 285.317 175.949 274.387 161.241 262.543C146.629 250.777 137.252 242.297 130.266 223.799C128.085 218.027 126.038 212.124 124.058 206.416L124.04 206.363C120.688 196.693 117.22 186.695 113.005 177.033C111.934 174.579 110.742 171.993 109.479 169.255C103.479 156.25 96.0313 140.103 96.9954 126.961Z" fill="url(#paint32_linear)"></path><path d="M183.434 291.334C191.397 297.877 199.628 304.642 206.986 311.932C220.545 325.366 234.715 369.326 235.213 373.475C224.84 370.141 215.096 365.265 205.456 358.587C195.732 351.852 150.092 279.052 140.788 253.622C149.425 262.515 183.434 291.334 183.434 291.334Z" fill="url(#paint33_linear)"></path><path d="M60.6327 296.55C61.312 296.939 61.9506 297.395 62.5392 297.911C64.1175 299.176 65.9058 300.611 67.7478 300.611C68.945 300.611 69.9786 299.997 70.7382 298.834C72.8042 295.67 72.296 293.281 71.801 290.971C71.5595 289.966 71.401 288.942 71.3271 287.91C71.216 285.76 73.9972 284.091 76.2321 282.75C76.5686 282.548 76.8923 282.353 77.1987 282.162L77.917 283.247C81.8981 289.254 83.8939 292.27 83.959 294.396C84.0206 296.394 82.2118 297.887 78.6084 300.861C78.187 301.21 77.702 301.633 77.1405 302.124C74.4479 304.478 69.942 308.415 66.8084 308.416V309.046V308.416C66.5033 308.419 66.1995 308.374 65.9082 308.284C61.6606 306.917 57.7321 302.667 54.2665 298.917C53.4855 298.073 52.7377 297.264 52.0059 296.506C53.5485 296.059 55.1428 295.814 56.7486 295.779C58.0834 295.756 59.4077 296.019 60.6327 296.55V296.55Z" fill="#95C709"></path><path d="M35.7438 108.434C29.7046 115.172 30.234 125.392 37.3176 138.809C47.9275 158.905 65.7026 174.101 82.893 188.798C85.1432 190.723 87.4464 192.691 89.7236 194.664C79.049 190.268 57.415 181.141 53.8046 179.516C36.7682 171.848 25.143 163.035 10.9107 146.997C6.65577 142.203 4.63095 136.362 5.05399 130.106C5.57084 122.46 9.80086 114.525 16.3697 108.881C27.5189 99.3008 40.4686 97.7429 54.9373 97.5162C47.6252 99.9502 40.8594 102.726 35.7438 108.434Z" fill="url(#paint34_linear)"></path><path d="M6.05649 152.396L6.10289 152.465C6.58374 153.165 7.03755 153.828 7.45297 154.449C9.85791 158.049 12.9573 160.941 15.957 163.736C18.669 166.263 21.2228 168.645 23.2878 171.491C32.0701 183.594 36.3233 200.903 40.0756 216.174C40.4134 217.549 40.7469 218.899 41.0757 220.225C41.5123 221.978 41.9183 223.79 42.3105 225.546C45.2316 238.593 48.2521 252.084 64.448 252.867C69.802 253.126 75.2229 254.076 80.4656 254.995L80.6753 255.032C81.5193 255.18 82.3581 255.326 83.1918 255.469C88.2194 256.331 92.6516 263.815 95.5159 268.986C94.4961 268.623 93.3785 268.14 92.2185 267.639C89.3213 266.387 86.0401 264.969 82.6344 264.619C82.2607 264.582 81.8855 264.563 81.51 264.564C78.6312 264.564 75.2506 265.586 71.9819 266.576C68.7576 267.551 65.4298 268.557 62.7005 268.557C60.9069 268.557 59.5329 268.123 58.4992 267.231C44.6827 255.301 35.8684 242.958 31.5529 229.497C27.9238 218.18 22.3808 207.949 17.0201 198.055C7.56305 180.601 -1.38543 164.086 0.178972 142.924C1.96736 146.445 4.20164 149.697 6.05649 152.396Z" fill="url(#paint35_linear)"></path><path d="M35.9508 251.375L51.9258 269.692C50.7353 270.24 49.4399 270.522 48.1295 270.518V270.518C45.017 270.518 41.786 268.955 38.9355 267.576C34.8568 265.603 35.3567 259.151 35.7977 253.459C35.8524 252.745 35.9065 252.051 35.9508 251.375Z" fill="url(#paint36_linear)"></path><path d="M66.2357 288.582L66.9935 295.697C65.8313 294.949 58.1153 291.661 55.7993 291.219C57.4215 290.37 64.9943 289.525 66.2357 288.582Z" fill="url(#paint37_linear)"></path><path d="M273.229 404.493C275.578 404.452 277.914 404.124 280.184 403.516C291.117 400.785 304.557 394.178 319.051 384.412C331.151 376.221 342.535 367.018 353.079 356.902C363.632 346.66 371.313 335.865 376.56 323.899C381.085 313.579 383.052 304.163 384.787 295.856C387.671 282.048 389.781 271.943 401.982 267.217C398.477 276.114 397.463 287.791 396.394 300.117C395.328 312.391 394.227 325.082 390.676 336.878C383.33 361.291 364.327 383.795 339.845 397.079C317.452 409.23 301.8 427.184 291.991 451.969C288.439 460.943 285.301 478.597 283.597 499.193C282.401 513.641 282.123 527.071 282.79 536.354C275.199 516.046 273.862 493.228 272.673 472.943C270.975 443.959 265.935 417.533 258.802 400.083C260.251 400.643 261.54 401.201 262.71 401.707C266.308 403.264 269.144 404.493 273.229 404.493Z" fill="url(#paint38_linear)"></path><path d="M72.1793 272.479C75.7969 271.666 78.6529 271.025 80.1741 271.025C80.3333 271.023 80.4926 271.034 80.6501 271.057C80.8231 271.886 80.0882 274.006 72.5646 278.532C67.404 281.637 61.0869 284.649 57.6929 286.267C56.2514 286.955 55.1148 287.497 54.4349 287.854C53.2669 288.508 51.9574 288.868 50.6193 288.903C44.838 288.903 40.9369 281.01 37.8015 274.667C37.6612 274.382 37.5227 274.102 37.3861 273.825C40.7787 275.117 44.8384 275.771 49.4887 275.771C57.5288 275.77 65.9964 273.868 72.1793 272.479Z" fill="#95C709"></path><path d="M356.39 572.228C364.127 563.41 371.103 553.621 377.849 544.155C379.795 541.424 381.807 538.6 383.798 535.856C400.582 512.726 418.023 487.286 431.971 457.945C444.701 468.705 450.388 479.58 452.184 496.488C453.946 513.065 445.606 533.889 432.79 544.927C430.171 547.182 427.289 549.756 424.239 552.481L424.184 552.53C414.138 561.504 401.636 572.671 388.428 581.471C373.043 591.722 359.874 596.705 348.169 596.707L348.165 597.336V596.707C341.77 596.745 335.481 595.076 329.946 591.873C332.936 589.66 336.013 587.729 338.996 585.857C345.217 581.953 351.092 578.265 356.39 572.228Z" fill="url(#paint39_linear)"></path><path d="M573.951 379.758C574.492 381.748 574.321 383.864 573.469 385.74C572.148 388.853 569.304 391.573 565.925 393.01C566.304 386.782 570.073 382.809 573.951 379.758Z" fill="url(#paint40_linear)"></path><path d="M532.365 325.567C541.274 304.717 553.271 281.769 569.012 255.465C575.373 244.837 582.58 232.794 593.354 225.985C604.896 218.691 618.452 213.103 632.49 207.55C642.474 203.6 652.568 199.369 662.331 195.276C677.492 188.921 693.158 182.354 708.757 176.696C713.17 175.095 754.823 164.676 767.186 161.975C750.025 171.888 739.685 179.531 722.812 193.053C700.778 210.71 680.351 231.822 665.016 248.242C655.657 258.263 647.914 267.812 641.342 277.435C637.765 282.663 634.457 288.071 631.431 293.636C630.67 295.043 627.574 297.337 617.164 300.272C616.847 300.362 616.625 300.425 616.519 300.458C589.458 309.126 561.703 317.118 534.862 324.848L532.365 325.567Z" fill="url(#paint41_linear)"></path><path d="M410.459 486.01C400.99 500.176 392.254 512.719 383.751 524.359C368.066 545.828 351.847 568.028 330.261 583.58L330.067 583.723C329.45 581.19 330.956 573.419 335.879 560.538C340.829 547.582 347.058 535.175 351.377 529.664C353.813 526.556 356.092 523.247 358.295 520.048C360.674 516.592 363.121 513.038 365.751 509.754C368.652 506.134 371.307 502.263 373.875 498.519C378.089 492.374 382.434 486.038 387.888 480.787C396.529 472.468 407.775 466.888 418.651 461.492C421.341 460.157 424.113 458.782 426.804 457.383C426.288 459.591 423.585 466.374 410.487 485.967L410.459 486.01Z" fill="url(#paint42_linear)"></path><path d="M569.25 398.544C568.406 401.758 566.563 404.107 563.435 405.963C563.879 402.79 565.648 400.537 569.25 398.544Z" fill="url(#paint43_linear)"></path><path d="M696.752 225.129L696.79 225.095C700.778 221.356 704.545 217.823 708.245 214.265C719.773 203.183 732.972 193.171 751.04 181.802C754.434 179.666 757.949 177.362 761.668 174.923L761.719 174.888C773.443 167.2 786.604 158.569 799.042 153.408C787.566 163.652 776.63 174.334 767.81 189.061C765.89 192.266 763.968 195.525 762.107 198.677C754.009 212.399 745.643 226.575 735.641 239.518C724.48 253.961 712.46 261.321 694.183 269.852C690.97 271.351 687.761 272.875 684.657 274.349C670.845 280.907 657.803 287.1 643.384 291.835C642.56 292.131 641.247 292.549 639.533 293.062C651.892 267.198 675.702 244.867 696.752 225.129Z" fill="url(#paint44_linear)"></path><path d="M523.842 422.038C524.514 416.216 525.209 410.198 526.63 404.42C529.267 393.703 533.205 381.996 542.427 376.425C545.478 374.582 549.039 373.673 552.485 372.794C554.309 372.329 556.194 371.847 558.02 371.228C559.783 370.63 561.566 369.652 563.291 368.706C566.095 367.167 568.982 365.582 571.792 365.582C572.304 365.582 572.815 365.636 573.315 365.745C574.589 366.021 575.367 366.459 575.45 366.941C575.683 368.315 573.338 371.569 560.835 379.269C559.997 379.785 559.391 380.157 559.106 380.362C548.628 387.876 545.357 399.824 542.194 411.38L541.744 413.023C536.773 431.076 529.416 449.992 509.729 466.485C514.264 458.165 518.422 450.071 520.861 440.496C522.415 434.395 523.141 428.113 523.842 422.038Z" fill="url(#paint45_linear)"></path><path d="M811.41 165.683C814.703 158.033 821.63 152.503 831.441 149.699C838.629 147.644 846.216 146.617 853.554 145.623C858.438 144.962 863.471 144.28 868.367 143.304C879.24 141.134 890.232 138.678 900.861 136.303L901.134 136.242C903.626 135.685 906.117 135.13 908.609 134.575C904.81 136.558 899.526 139.085 895.65 140.939C891.355 142.993 887.667 144.757 886.45 145.501C879.199 149.93 874.397 157.705 869.754 165.224C868.268 167.631 866.866 169.9 865.408 172.023C858.881 181.523 852.664 185.297 842.236 191.15C836.997 194.091 831.887 196.937 825.752 200.352C824.676 200.951 823.744 201.512 822.92 202.007C821.162 203.064 819.779 203.896 818.893 203.896C817.891 203.896 816.837 202.619 815.131 199.339C808.801 187.165 807.444 174.898 811.41 165.683Z" fill="url(#paint46_linear)"></path><path d="M752.051 228.438C756.645 221.806 760.518 214.698 764.264 207.825C767.132 202.563 770.094 197.128 773.349 191.962C779.135 182.782 786.461 173.826 795.124 165.343C800.463 160.116 807.572 153.939 816.653 150.574C809.699 155.366 804.433 160.28 802.91 171.343C800.993 185.26 806.553 196.288 812.44 207.965L813.081 209.238L737.669 249.825C742.072 243.977 746.257 237.426 749.142 232.908C750.399 230.943 751.382 229.405 752.051 228.438Z" fill="url(#paint47_linear)"></path><path d="M560.694 386.259C557.668 398.722 563.186 405.992 546.86 419.796C547.028 419.006 547.195 418.198 547.368 417.368C549.543 406.899 551.989 395.132 560.694 386.259Z" fill="url(#paint48_linear)"></path><path d="M891.29 172.241C891.995 172.366 892.724 172.494 893.45 172.639C899.194 173.781 899.063 175.899 898.744 181.014C898.698 181.759 898.647 182.576 898.614 183.447C893.888 181.22 888.721 180.088 883.497 180.136C878.891 180.185 874.314 180.874 869.898 182.183L880.196 165.997C882.437 170.68 886.933 171.474 891.29 172.241Z" fill="url(#paint49_linear)"></path><path d="M461.986 463.101C463.77 461.19 465.784 458.656 467.916 455.974C474.955 447.116 483.702 436.109 492.525 436.109C492.595 436.109 492.664 436.109 492.736 436.112C495.336 436.164 497.029 436.893 497.766 438.28C500.373 443.182 492.247 455.779 489.189 460.521C488.652 461.352 488.189 462.071 487.87 462.598C478.708 477.746 469.336 489.682 459.216 499.088L459.129 499.169C459.11 498.971 459.092 498.774 459.073 498.576L459.046 498.299C458.446 492.022 457.826 485.531 456.041 479.23C453.883 471.605 455.208 470.217 460.139 465.053C460.711 464.454 461.328 463.808 461.986 463.101Z" fill="url(#paint50_linear)"></path><path d="M319.818 504.95C327.483 492.097 338.662 480.912 352.145 472.606C356.957 469.64 362.139 467.155 367.149 464.752C368.794 463.962 370.482 463.153 372.139 462.336C374.689 461.079 377.037 459.296 380.012 457.037C382.368 455.248 385.217 453.084 388.791 450.758C378.798 475.28 366.289 497.152 350.591 517.568C335.654 536.994 326.441 557.28 319.892 585.217C318.685 584.027 317.488 582.881 316.323 581.765C308.022 573.814 300.87 566.963 300.225 554.16C299.442 538.625 308.88 523.038 317.207 509.288C318.104 507.805 318.974 506.359 319.818 504.95Z" fill="url(#paint51_linear)"></path><path d="M291.075 491.939C293.417 474.141 295.833 455.776 304.057 440.461C311.269 427.034 323.421 415.607 339.198 407.416C350.614 401.49 363.123 398.497 375.22 395.603C384.093 393.481 393.268 391.286 402.061 387.941C421.215 380.652 437.311 367.858 447.383 351.916C454.659 340.399 457.091 327.619 459.443 315.26C461.298 305.516 463.215 295.44 467.509 286.118C474.295 271.392 488.702 250.607 506.979 240.491C513.735 236.752 523.171 236.144 531.495 235.607C534.511 235.412 537.359 235.228 540.052 234.914C547.449 234.056 554.847 233.204 562.246 232.359C567.617 231.743 572.987 231.126 578.357 230.508C568.294 244.17 559.103 259.023 550.287 275.865C545.866 284.311 541.507 292.913 537.291 301.233L536.51 302.774C535.62 304.53 534.651 306.868 533.626 309.342C530.415 317.09 526.018 327.7 520.05 329.829C501.731 336.363 483.787 345.904 466.714 358.189C450.348 370.026 435.418 383.73 422.224 399.023C416.816 405.266 408.901 415.054 401.917 423.691L401.882 423.734C395.976 431.039 390.397 437.935 387.618 441.093C379.671 450.122 369.966 455.402 359.691 460.991C354.394 463.872 348.915 466.852 343.697 470.394C329.44 480.13 317.589 492.988 309.044 507.99C304.844 515.257 301.192 522.828 298.119 530.639C294.963 538.838 292.757 545.459 293.488 554.447C288.785 546.779 289.017 506.829 289.826 501.18C290.258 498.146 290.674 494.989 291.075 491.939Z" fill="url(#paint52_linear)"></path><path d="M493.374 464.899C493.898 464.091 494.558 463.133 495.256 462.118C500.789 454.077 510.045 440.627 501.607 432.634C499.024 430.187 496.079 428.946 492.853 428.946C486.641 428.946 480.564 433.46 475.348 438.108C474.107 431.927 472.842 424.629 475.925 420.855C477.813 418.545 481.251 417.53 486.457 417.751C487.643 417.801 488.827 417.862 490.006 417.924L490.087 417.297L490.054 417.926C492.731 418.065 495.499 418.207 498.165 418.207C505.111 418.207 513.016 417.332 519.66 411.14C516.796 431.461 513.349 449.778 502.571 467.264C491.18 485.745 474.941 501.458 459.237 516.654C458.311 517.55 457.389 518.443 456.47 519.333C457.999 510.476 461.473 504.274 468.833 497.027C478.266 487.737 485.528 476.981 493.374 464.899Z" fill="url(#paint53_linear)"></path><defs><linearGradient id="paint0_linear" x1="1019.97" y1="91.9934" x2="-333.182" y2="431.651" gradientUnits="userSpaceOnUse"><stop offset="0.022" stop-color="#00D1DE"></stop><stop offset="0.054" stop-color="#00A8DE"></stop><stop offset="0.2" stop-color="#683391"></stop><stop offset="0.285" stop-color="#A9258D"></stop><stop offset="0.4" stop-color="#E91388"></stop><stop offset="0.509" stop-color="#EB2D2E"></stop><stop offset="0.692" stop-color="#FDE92B"></stop><stop offset="0.876" stop-color="#7EBC44"></stop><stop offset="1" stop-color="#00DB54"></stop></linearGradient><linearGradient id="paint1_linear" x1="1018.19" y1="82.0639" x2="-341.973" y2="398.852" gradientUnits="userSpaceOnUse"><stop offset="0.022" stop-color="#00D1DE"></stop><stop offset="0.054" stop-color="#00A8DE"></stop><stop offset="0.2" stop-color="#683391"></stop><stop offset="0.285" stop-color="#A9258D"></stop><stop offset="0.4" stop-color="#E91388"></stop><stop offset="0.509" stop-color="#EB2D2E"></stop><stop offset="0.692" stop-color="#FDE92B"></stop><stop offset="0.876" stop-color="#7EBC44"></stop><stop offset="1" stop-color="#00DB54"></stop></linearGradient><linearGradient id="paint2_linear" x1="1022.17" y1="104.357" x2="-260.358" y2="595.75" gradientUnits="userSpaceOnUse"><stop offset="0.022" stop-color="#00D1DE"></stop><stop offset="0.054" stop-color="#00A8DE"></stop><stop offset="0.2" stop-color="#683391"></stop><stop offset="0.285" stop-color="#A9258D"></stop><stop offset="0.4" stop-color="#E91388"></stop><stop offset="0.509" stop-color="#EB2D2E"></stop><stop offset="0.692" stop-color="#FDE92B"></stop><stop offset="0.876" stop-color="#7EBC44"></stop><stop offset="1" stop-color="#00DB54"></stop></linearGradient><linearGradient id="paint3_linear" x1="1018.65" y1="84.5673" x2="-364.548" y2="286.456" gradientUnits="userSpaceOnUse"><stop offset="0.022" stop-color="#00D1DE"></stop><stop offset="0.054" stop-color="#00A8DE"></stop><stop offset="0.2" stop-color="#683391"></stop><stop offset="0.285" stop-color="#A9258D"></stop><stop offset="0.4" stop-color="#E91388"></stop><stop offset="0.509" stop-color="#EB2D2E"></stop><stop offset="0.692" stop-color="#FDE92B"></stop><stop offset="0.876" stop-color="#7EBC44"></stop><stop offset="1" stop-color="#00DB54"></stop></linearGradient><linearGradient id="paint4_linear" x1="944.911" y1="142.056" x2="-161.841" y2="410.666" gradientUnits="userSpaceOnUse"><stop offset="0.022" stop-color="#00D1DE"></stop><stop offset="0.054" stop-color="#00A8DE"></stop><stop offset="0.2" stop-color="#683391"></stop><stop offset="0.285" stop-color="#A9258D"></stop><stop offset="0.4" stop-color="#E91388"></stop><stop offset="0.509" stop-color="#EB2D2E"></stop><stop offset="0.692" stop-color="#FDE92B"></stop><stop offset="0.876" stop-color="#7EBC44"></stop><stop offset="1" stop-color="#00DB54"></stop></linearGradient><linearGradient id="paint5_linear" x1="1023.8" y1="113.521" x2="-231.623" y2="645.374" gradientUnits="userSpaceOnUse"><stop offset="0.022" stop-color="#00D1DE"></stop><stop offset="0.054" stop-color="#00A8DE"></stop><stop offset="0.2" stop-color="#683391"></stop><stop offset="0.285" stop-color="#A9258D"></stop><stop offset="0.4" stop-color="#E91388"></stop><stop offset="0.509" stop-color="#EB2D2E"></stop><stop offset="0.692" stop-color="#FDE92B"></stop><stop offset="0.876" stop-color="#7EBC44"></stop><stop offset="1" stop-color="#00DB54"></stop></linearGradient><linearGradient id="paint6_linear" x1="1027.45" y1="133.943" x2="359.474" y2="955.494" gradientUnits="userSpaceOnUse"><stop offset="0.022" stop-color="#00D1DE"></stop><stop offset="0.054" stop-color="#00A8DE"></stop><stop offset="0.2" stop-color="#683391"></stop><stop offset="0.285" stop-color="#A9258D"></stop><stop offset="0.4" stop-color="#E91388"></stop><stop offset="0.509" stop-color="#EB2D2E"></stop><stop offset="0.692" stop-color="#FDE92B"></stop><stop offset="0.876" stop-color="#7EBC44"></stop><stop offset="1" stop-color="#00DB54"></stop></linearGradient><linearGradient id="paint7_linear" x1="1000.48" y1="79.3433" x2="302.508" y2="701.667" gradientUnits="userSpaceOnUse"><stop offset="0.022" stop-color="#00D1DE"></stop><stop offset="0.054" stop-color="#00A8DE"></stop><stop offset="0.2" stop-color="#683391"></stop><stop offset="0.285" stop-color="#A9258D"></stop><stop offset="0.4" stop-color="#E91388"></stop><stop offset="0.509" stop-color="#EB2D2E"></stop><stop offset="0.692" stop-color="#FDE92B"></stop><stop offset="0.876" stop-color="#7EBC44"></stop><stop offset="1" stop-color="#00DB54"></stop></linearGradient><linearGradient id="paint8_linear" x1="1022.27" y1="104.731" x2="326.433" y2="926.518" gradientUnits="userSpaceOnUse"><stop offset="0.022" stop-color="#00D1DE"></stop><stop offset="0.054" stop-color="#00A8DE"></stop><stop offset="0.2" stop-color="#683391"></stop><stop offset="0.285" stop-color="#A9258D"></stop><stop offset="0.4" stop-color="#E91388"></stop><stop offset="0.509" stop-color="#EB2D2E"></stop><stop offset="0.692" stop-color="#FDE92B"></stop><stop offset="0.876" stop-color="#7EBC44"></stop><stop offset="1" stop-color="#00DB54"></stop></linearGradient><linearGradient id="paint9_linear" x1="1018.32" y1="107.87" x2="216.43" y2="614.986" gradientUnits="userSpaceOnUse"><stop offset="0.022" stop-color="#00ABB8"></stop><stop offset="0.2" stop-color="#683391"></stop><stop offset="0.285" stop-color="#A9258D"></stop><stop offset="0.4" stop-color="#E91388"></stop><stop offset="0.509" stop-color="#EB2D2E"></stop><stop offset="0.692" stop-color="#FDE92B"></stop><stop offset="0.876" stop-color="#7EBC44"></stop><stop offset="1" stop-color="#00DB54"></stop></linearGradient><linearGradient id="paint10_linear" x1="1023.71" y1="116.522" x2="174.771" y2="527.879" gradientUnits="userSpaceOnUse"><stop stop-color="#1CB5D8"></stop><stop offset="1" stop-color="#1ABBD7"></stop></linearGradient><linearGradient id="paint11_linear" x1="1007.36" y1="90.3142" x2="129.957" y2="320.678" gradientUnits="userSpaceOnUse"><stop offset="0.022" stop-color="#00ABB8"></stop><stop offset="0.2" stop-color="#683391"></stop><stop offset="0.285" stop-color="#A9258D"></stop><stop offset="0.4" stop-color="#E91388"></stop><stop offset="0.509" stop-color="#EB2D2E"></stop><stop offset="0.692" stop-color="#FDE92B"></stop><stop offset="0.876" stop-color="#7EBC44"></stop><stop offset="1" stop-color="#00DB54"></stop></linearGradient><linearGradient id="paint12_linear" x1="1012.72" y1="98.926" x2="140.545" y2="284.266" gradientUnits="userSpaceOnUse"><stop offset="0.022" stop-color="#00ABB8"></stop><stop offset="0.2" stop-color="#683391"></stop><stop offset="0.285" stop-color="#A9258D"></stop><stop offset="0.4" stop-color="#E91388"></stop><stop offset="0.509" stop-color="#EB2D2E"></stop><stop offset="0.692" stop-color="#FDE92B"></stop><stop offset="0.876" stop-color="#7EBC44"></stop><stop offset="1" stop-color="#00DB54"></stop></linearGradient><linearGradient id="paint13_linear" x1="1010.73" y1="95.7008" x2="251.392" y2="659.476" gradientUnits="userSpaceOnUse"><stop offset="0.022" stop-color="#00ABB8"></stop><stop offset="0.2" stop-color="#683391"></stop><stop offset="0.285" stop-color="#A9258D"></stop><stop offset="0.4" stop-color="#E91388"></stop><stop offset="0.509" stop-color="#EB2D2E"></stop><stop offset="0.692" stop-color="#FDE92B"></stop><stop offset="0.876" stop-color="#7EBC44"></stop><stop offset="1" stop-color="#00DB54"></stop></linearGradient><linearGradient id="paint14_linear" x1="1017.42" y1="106.439" x2="142.685" y2="311.18" gradientUnits="userSpaceOnUse"><stop offset="0.022" stop-color="#00ABB8"></stop><stop offset="0.2" stop-color="#683391"></stop><stop offset="0.285" stop-color="#A9258D"></stop><stop offset="0.4" stop-color="#E91388"></stop><stop offset="0.509" stop-color="#EB2D2E"></stop><stop offset="0.692" stop-color="#FDE92B"></stop><stop offset="0.876" stop-color="#7EBC44"></stop><stop offset="1" stop-color="#00DB54"></stop></linearGradient><linearGradient id="paint15_linear" x1="1021.35" y1="100.124" x2="-257.138" y2="597.83" gradientUnits="userSpaceOnUse"><stop offset="0.022" stop-color="#00D1DE"></stop><stop offset="0.054" stop-color="#00A8DE"></stop><stop offset="0.2" stop-color="#683391"></stop><stop offset="0.285" stop-color="#A9258D"></stop><stop offset="0.4" stop-color="#E91388"></stop><stop offset="0.509" stop-color="#EB2D2E"></stop><stop offset="0.692" stop-color="#FDE92B"></stop><stop offset="0.876" stop-color="#7EBC44"></stop><stop offset="1" stop-color="#00DB54"></stop></linearGradient><linearGradient id="paint16_linear" x1="385.694" y1="471.564" x2="-14.6547" y2="-13.1259" gradientUnits="userSpaceOnUse"><stop offset="0.022" stop-color="#00D1DE"></stop><stop offset="0.054" stop-color="#00A8DE"></stop><stop offset="0.2" stop-color="#683391"></stop><stop offset="0.285" stop-color="#A9258D"></stop><stop offset="0.4" stop-color="#E91388"></stop><stop offset="0.509" stop-color="#EB2D2E"></stop><stop offset="0.692" stop-color="#FDE92B"></stop><stop offset="0.876" stop-color="#7EBC44"></stop><stop offset="1" stop-color="#00DB54"></stop></linearGradient><linearGradient id="paint17_linear" x1="1019.46" y1="88.9939" x2="-276.171" y2="558.468" gradientUnits="userSpaceOnUse"><stop offset="0.022" stop-color="#00D1DE"></stop><stop offset="0.054" stop-color="#00A8DE"></stop><stop offset="0.2" stop-color="#683391"></stop><stop offset="0.285" stop-color="#A9258D"></stop><stop offset="0.4" stop-color="#E91388"></stop><stop offset="0.509" stop-color="#EB2D2E"></stop><stop offset="0.692" stop-color="#FDE92B"></stop><stop offset="0.876" stop-color="#7EBC44"></stop><stop offset="1" stop-color="#00DB54"></stop></linearGradient><linearGradient id="paint18_linear" x1="380.119" y1="473.775" x2="-34.2746" y2="14.1476" gradientUnits="userSpaceOnUse"><stop offset="0.022" stop-color="#00D1DE"></stop><stop offset="0.054" stop-color="#00A8DE"></stop><stop offset="0.2" stop-color="#683391"></stop><stop offset="0.285" stop-color="#A9258D"></stop><stop offset="0.4" stop-color="#E91388"></stop><stop offset="0.509" stop-color="#EB2D2E"></stop><stop offset="0.692" stop-color="#FDE92B"></stop><stop offset="0.876" stop-color="#7EBC44"></stop><stop offset="1" stop-color="#00DB54"></stop></linearGradient><linearGradient id="paint19_linear" x1="405.154" y1="370.336" x2="-27.2256" y2="95.0442" gradientUnits="userSpaceOnUse"><stop offset="0.022" stop-color="#00D1DE"></stop><stop offset="0.104" stop-color="#E91388"></stop><stop offset="0.396" stop-color="#EB2D2E"></stop><stop offset="0.633" stop-color="#E7E92B"></stop><stop offset="0.876" stop-color="#7EBC44"></stop><stop offset="1" stop-color="#00DB54"></stop></linearGradient><linearGradient id="paint20_linear" x1="447.348" y1="448.306" x2="343.93" y2="-194.157" gradientUnits="userSpaceOnUse"><stop offset="0.022" stop-color="#00D1DE"></stop><stop offset="0.054" stop-color="#00A8DE"></stop><stop offset="0.2" stop-color="#683391"></stop><stop offset="0.285" stop-color="#A9258D"></stop><stop offset="0.4" stop-color="#E91388"></stop><stop offset="0.509" stop-color="#EB2D2E"></stop><stop offset="0.692" stop-color="#FDE92B"></stop><stop offset="0.876" stop-color="#7EBC44"></stop><stop offset="1" stop-color="#00DB54"></stop></linearGradient><linearGradient id="paint21_linear" x1="354.767" y1="483.377" x2="-55.3966" y2="329.841" gradientUnits="userSpaceOnUse"><stop offset="0.022" stop-color="#00D1DE"></stop><stop offset="0.054" stop-color="#00A8DE"></stop><stop offset="0.2" stop-color="#683391"></stop><stop offset="0.285" stop-color="#A9258D"></stop><stop offset="0.4" stop-color="#E91388"></stop><stop offset="0.509" stop-color="#EB2D2E"></stop><stop offset="0.692" stop-color="#FDE92B"></stop><stop offset="0.876" stop-color="#7EBC44"></stop><stop offset="1" stop-color="#00DB54"></stop></linearGradient><linearGradient id="paint22_linear" x1="392.502" y1="469.078" x2="22.1113" y2="373.809" gradientUnits="userSpaceOnUse"><stop offset="0.022" stop-color="#00D1DE"></stop><stop offset="0.054" stop-color="#00A8DE"></stop><stop offset="0.2" stop-color="#683391"></stop><stop offset="0.285" stop-color="#A9258D"></stop><stop offset="0.4" stop-color="#E91388"></stop><stop offset="0.509" stop-color="#EB2D2E"></stop><stop offset="0.692" stop-color="#FDE92B"></stop><stop offset="0.876" stop-color="#7EBC44"></stop><stop offset="1" stop-color="#00DB54"></stop></linearGradient><linearGradient id="paint23_linear" x1="460.686" y1="443.282" x2="257.765" y2="-188.359" gradientUnits="userSpaceOnUse"><stop offset="0.022" stop-color="#00D1DE"></stop><stop offset="0.054" stop-color="#00A8DE"></stop><stop offset="0.2" stop-color="#683391"></stop><stop offset="0.285" stop-color="#A9258D"></stop><stop offset="0.4" stop-color="#E91388"></stop><stop offset="0.509" stop-color="#EB2D2E"></stop><stop offset="0.692" stop-color="#FDE92B"></stop><stop offset="0.876" stop-color="#7EBC44"></stop><stop offset="1" stop-color="#00DB54"></stop></linearGradient><linearGradient id="paint24_linear" x1="1040.18" y1="205.758" x2="-345.145" y2="385.011" gradientUnits="userSpaceOnUse"><stop offset="0.022" stop-color="#00D1DE"></stop><stop offset="0.054" stop-color="#00A8DE"></stop><stop offset="0.2" stop-color="#683391"></stop><stop offset="0.285" stop-color="#A9258D"></stop><stop offset="0.4" stop-color="#E91388"></stop><stop offset="0.509" stop-color="#EB2D2E"></stop><stop offset="0.692" stop-color="#FDE92B"></stop><stop offset="0.876" stop-color="#7EBC44"></stop><stop offset="1" stop-color="#00DB54"></stop></linearGradient><linearGradient id="paint25_linear" x1="1016.35" y1="71.6862" x2="-364.28" y2="293.443" gradientUnits="userSpaceOnUse"><stop offset="0.022" stop-color="#00D1DE"></stop><stop offset="0.054" stop-color="#00A8DE"></stop><stop offset="0.2" stop-color="#683391"></stop><stop offset="0.285" stop-color="#A9258D"></stop><stop offset="0.4" stop-color="#E91388"></stop><stop offset="0.509" stop-color="#EB2D2E"></stop><stop offset="0.692" stop-color="#FDE92B"></stop><stop offset="0.876" stop-color="#7EBC44"></stop><stop offset="1" stop-color="#00DB54"></stop></linearGradient><linearGradient id="paint26_linear" x1="416.891" y1="459.865" x2="94.1645" y2="-111.924" gradientUnits="userSpaceOnUse"><stop offset="0.022" stop-color="#00D1DE"></stop><stop offset="0.054" stop-color="#00A8DE"></stop><stop offset="0.2" stop-color="#683391"></stop><stop offset="0.285" stop-color="#A9258D"></stop><stop offset="0.4" stop-color="#E91388"></stop><stop offset="0.509" stop-color="#EB2D2E"></stop><stop offset="0.692" stop-color="#FDE92B"></stop><stop offset="0.876" stop-color="#7EBC44"></stop><stop offset="1" stop-color="#00DB54"></stop></linearGradient><linearGradient id="paint27_linear" x1="1017.2" y1="76.2301" x2="-368.267" y2="142.425" gradientUnits="userSpaceOnUse"><stop offset="0.022" stop-color="#00D1DE"></stop><stop offset="0.054" stop-color="#00A8DE"></stop><stop offset="0.2" stop-color="#683391"></stop><stop offset="0.285" stop-color="#A9258D"></stop><stop offset="0.4" stop-color="#E91388"></stop><stop offset="0.509" stop-color="#EB2D2E"></stop><stop offset="0.692" stop-color="#FDE92B"></stop><stop offset="0.876" stop-color="#7EBC44"></stop><stop offset="1" stop-color="#00DB54"></stop></linearGradient><linearGradient id="paint28_linear" x1="1012.05" y1="47.6834" x2="-374.909" y2="200.943" gradientUnits="userSpaceOnUse"><stop offset="0.022" stop-color="#00D1DE"></stop><stop offset="0.054" stop-color="#00A8DE"></stop><stop offset="0.2" stop-color="#683391"></stop><stop offset="0.285" stop-color="#A9258D"></stop><stop offset="0.4" stop-color="#E91388"></stop><stop offset="0.509" stop-color="#EB2D2E"></stop><stop offset="0.692" stop-color="#FDE92B"></stop><stop offset="0.876" stop-color="#7EBC44"></stop><stop offset="1" stop-color="#00DB54"></stop></linearGradient><linearGradient id="paint29_linear" x1="431.614" y1="520.71" x2="-71.1071" y2="413.455" gradientUnits="userSpaceOnUse"><stop offset="0.022" stop-color="#00D1DE"></stop><stop offset="0.054" stop-color="#00A8DE"></stop><stop offset="0.2" stop-color="#683391"></stop><stop offset="0.285" stop-color="#A9258D"></stop><stop offset="0.4" stop-color="#E91388"></stop><stop offset="0.509" stop-color="#EB2D2E"></stop><stop offset="0.692" stop-color="#FDE92B"></stop><stop offset="0.876" stop-color="#7EBC44"></stop><stop offset="1" stop-color="#00DB54"></stop></linearGradient><linearGradient id="paint30_linear" x1="497.865" y1="438.718" x2="143.008" y2="0.516275" gradientUnits="userSpaceOnUse"><stop offset="0.022" stop-color="#00D1DE"></stop><stop offset="0.054" stop-color="#00A8DE"></stop><stop offset="0.2" stop-color="#683391"></stop><stop offset="0.285" stop-color="#A9258D"></stop><stop offset="0.4" stop-color="#E91388"></stop><stop offset="0.509" stop-color="#EB2D2E"></stop><stop offset="0.692" stop-color="#FDE92B"></stop><stop offset="0.876" stop-color="#7EBC44"></stop><stop offset="1" stop-color="#00DB54"></stop></linearGradient><linearGradient id="paint31_linear" x1="1038.88" y1="198.496" x2="-341.758" y2="419.769" gradientUnits="userSpaceOnUse"><stop offset="0.022" stop-color="#00D1DE"></stop><stop offset="0.054" stop-color="#00A8DE"></stop><stop offset="0.2" stop-color="#683391"></stop><stop offset="0.285" stop-color="#A9258D"></stop><stop offset="0.4" stop-color="#E91388"></stop><stop offset="0.509" stop-color="#EB2D2E"></stop><stop offset="0.692" stop-color="#FDE92B"></stop><stop offset="0.876" stop-color="#7EBC44"></stop><stop offset="1" stop-color="#00DB54"></stop></linearGradient><linearGradient id="paint32_linear" x1="477.775" y1="463.631" x2="-31.0785" y2="237.593" gradientUnits="userSpaceOnUse"><stop offset="0.022" stop-color="#00D1DE"></stop><stop offset="0.054" stop-color="#00A8DE"></stop><stop offset="0.2" stop-color="#683391"></stop><stop offset="0.285" stop-color="#A9258D"></stop><stop offset="0.4" stop-color="#E91388"></stop><stop offset="0.509" stop-color="#EB2D2E"></stop><stop offset="0.692" stop-color="#FDE92B"></stop><stop offset="0.876" stop-color="#7EBC44"></stop><stop offset="1" stop-color="#00DB54"></stop></linearGradient><linearGradient id="paint33_linear" x1="1032.62" y1="163.133" x2="-354.426" y2="316.458" gradientUnits="userSpaceOnUse"><stop offset="0.022" stop-color="#00D1DE"></stop><stop offset="0.054" stop-color="#00A8DE"></stop><stop offset="0.2" stop-color="#683391"></stop><stop offset="0.285" stop-color="#A9258D"></stop><stop offset="0.4" stop-color="#E91388"></stop><stop offset="0.509" stop-color="#EB2D2E"></stop><stop offset="0.692" stop-color="#FDE92B"></stop><stop offset="0.876" stop-color="#7EBC44"></stop><stop offset="1" stop-color="#00DB54"></stop></linearGradient><linearGradient id="paint34_linear" x1="468.019" y1="475.714" x2="-19.0109" y2="176.039" gradientUnits="userSpaceOnUse"><stop offset="0.022" stop-color="#00D1DE"></stop><stop offset="0.054" stop-color="#00A8DE"></stop><stop offset="0.2" stop-color="#683391"></stop><stop offset="0.285" stop-color="#A9258D"></stop><stop offset="0.4" stop-color="#E91388"></stop><stop offset="0.509" stop-color="#EB2D2E"></stop><stop offset="0.692" stop-color="#FDE92B"></stop><stop offset="0.876" stop-color="#7EBC44"></stop><stop offset="1" stop-color="#00DB54"></stop></linearGradient><linearGradient id="paint35_linear" x1="426.765" y1="526.657" x2="-80.4203" y2="291.022" gradientUnits="userSpaceOnUse"><stop offset="0.022" stop-color="#00D1DE"></stop><stop offset="0.054" stop-color="#00A8DE"></stop><stop offset="0.2" stop-color="#683391"></stop><stop offset="0.285" stop-color="#A9258D"></stop><stop offset="0.4" stop-color="#E91388"></stop><stop offset="0.509" stop-color="#EB2D2E"></stop><stop offset="0.692" stop-color="#FDE92B"></stop><stop offset="0.876" stop-color="#7EBC44"></stop><stop offset="1" stop-color="#00DB54"></stop></linearGradient><linearGradient id="paint36_linear" x1="403.344" y1="555.595" x2="-87.002" y2="263.793" gradientUnits="userSpaceOnUse"><stop offset="0.022" stop-color="#00D1DE"></stop><stop offset="0.054" stop-color="#00A8DE"></stop><stop offset="0.2" stop-color="#683391"></stop><stop offset="0.285" stop-color="#A9258D"></stop><stop offset="0.4" stop-color="#E91388"></stop><stop offset="0.509" stop-color="#EB2D2E"></stop><stop offset="0.692" stop-color="#FDE92B"></stop><stop offset="0.876" stop-color="#7EBC44"></stop><stop offset="1" stop-color="#00DB54"></stop></linearGradient><linearGradient id="paint37_linear" x1="397.86" y1="562.401" x2="163.47" y2="93.0003" gradientUnits="userSpaceOnUse"><stop offset="0.022" stop-color="#00D1DE"></stop><stop offset="0.054" stop-color="#00A8DE"></stop><stop offset="0.2" stop-color="#683391"></stop><stop offset="0.285" stop-color="#A9258D"></stop><stop offset="0.4" stop-color="#E91388"></stop><stop offset="0.509" stop-color="#EB2D2E"></stop><stop offset="0.692" stop-color="#FDE92B"></stop><stop offset="0.876" stop-color="#7EBC44"></stop><stop offset="1" stop-color="#00DB54"></stop></linearGradient><linearGradient id="paint38_linear" x1="1052.59" y1="275.291" x2="-333.064" y2="345.128" gradientUnits="userSpaceOnUse"><stop offset="0.022" stop-color="#00D1DE"></stop><stop offset="0.054" stop-color="#00A8DE"></stop><stop offset="0.2" stop-color="#683391"></stop><stop offset="0.285" stop-color="#A9258D"></stop><stop offset="0.4" stop-color="#E91388"></stop><stop offset="0.509" stop-color="#EB2D2E"></stop><stop offset="0.692" stop-color="#FDE92B"></stop><stop offset="0.876" stop-color="#7EBC44"></stop><stop offset="1" stop-color="#00DB54"></stop></linearGradient><linearGradient id="paint39_linear" x1="696.139" y1="274.786" x2="105.734" y2="666.926" gradientUnits="userSpaceOnUse"><stop offset="0.022" stop-color="#00D1DE"></stop><stop offset="0.054" stop-color="#00A8DE"></stop><stop offset="0.2" stop-color="#683391"></stop><stop offset="0.285" stop-color="#A9258D"></stop><stop offset="0.4" stop-color="#E91388"></stop><stop offset="0.509" stop-color="#EB2D2E"></stop><stop offset="0.692" stop-color="#FDE92B"></stop><stop offset="0.876" stop-color="#7EBC44"></stop><stop offset="1" stop-color="#00DB54"></stop></linearGradient><linearGradient id="paint40_linear" x1="697.721" y1="276.765" x2="70.8272" y2="490.437" gradientUnits="userSpaceOnUse"><stop offset="0.022" stop-color="#00D1DE"></stop><stop offset="0.054" stop-color="#00A8DE"></stop><stop offset="0.2" stop-color="#683391"></stop><stop offset="0.285" stop-color="#A9258D"></stop><stop offset="0.4" stop-color="#E91388"></stop><stop offset="0.509" stop-color="#EB2D2E"></stop><stop offset="0.692" stop-color="#FDE92B"></stop><stop offset="0.876" stop-color="#7EBC44"></stop><stop offset="1" stop-color="#00DB54"></stop></linearGradient><linearGradient id="paint41_linear" x1="952.929" y1="179.807" x2="-70.899" y2="624.589" gradientUnits="userSpaceOnUse"><stop offset="0.022" stop-color="#00D1DE"></stop><stop offset="0.054" stop-color="#00A8DE"></stop><stop offset="0.285" stop-color="#A9258D"></stop><stop offset="0.4" stop-color="#E91388"></stop><stop offset="0.509" stop-color="#EB2D2E"></stop><stop offset="0.692" stop-color="#FDE92B"></stop><stop offset="0.876" stop-color="#7EBC44"></stop><stop offset="1" stop-color="#00DB54"></stop></linearGradient><linearGradient id="paint42_linear" x1="680.116" y1="256.249" x2="61.3963" y2="569.198" gradientUnits="userSpaceOnUse"><stop offset="0.022" stop-color="#00D1DE"></stop><stop offset="0.054" stop-color="#00A8DE"></stop><stop offset="0.2" stop-color="#683391"></stop><stop offset="0.285" stop-color="#A9258D"></stop><stop offset="0.4" stop-color="#E91388"></stop><stop offset="0.509" stop-color="#EB2D2E"></stop><stop offset="0.692" stop-color="#FDE92B"></stop><stop offset="0.876" stop-color="#7EBC44"></stop><stop offset="1" stop-color="#00DB54"></stop></linearGradient><linearGradient id="paint43_linear" x1="703.894" y1="283.812" x2="88.2948" y2="609.38" gradientUnits="userSpaceOnUse"><stop offset="0.022" stop-color="#00D1DE"></stop><stop offset="0.054" stop-color="#00A8DE"></stop><stop offset="0.2" stop-color="#683391"></stop><stop offset="0.285" stop-color="#A9258D"></stop><stop offset="0.4" stop-color="#E91388"></stop><stop offset="0.509" stop-color="#EB2D2E"></stop><stop offset="0.692" stop-color="#FDE92B"></stop><stop offset="0.876" stop-color="#7EBC44"></stop><stop offset="1" stop-color="#00DB54"></stop></linearGradient><linearGradient id="paint44_linear" x1="951.692" y1="174.216" x2="-144.973" y2="475.802" gradientUnits="userSpaceOnUse"><stop offset="0.022" stop-color="#00D1DE"></stop><stop offset="0.054" stop-color="#00A8DE"></stop><stop offset="0.285" stop-color="#A9258D"></stop><stop offset="0.4" stop-color="#E91388"></stop><stop offset="0.509" stop-color="#EB2D2E"></stop><stop offset="0.692" stop-color="#FDE92B"></stop><stop offset="0.876" stop-color="#7EBC44"></stop><stop offset="1" stop-color="#00DB54"></stop></linearGradient><linearGradient id="paint45_linear" x1="696.221" y1="274.871" x2="68.4194" y2="504.149" gradientUnits="userSpaceOnUse"><stop offset="0.022" stop-color="#00D1DE"></stop><stop offset="0.054" stop-color="#00A8DE"></stop><stop offset="0.2" stop-color="#683391"></stop><stop offset="0.285" stop-color="#A9258D"></stop><stop offset="0.4" stop-color="#E91388"></stop><stop offset="0.509" stop-color="#EB2D2E"></stop><stop offset="0.692" stop-color="#FDE92B"></stop><stop offset="0.876" stop-color="#7EBC44"></stop><stop offset="1" stop-color="#00DB54"></stop></linearGradient><linearGradient id="paint46_linear" x1="946.791" y1="151.074" x2="-77.2999" y2="595.347" gradientUnits="userSpaceOnUse"><stop offset="0.022" stop-color="#00D1DE"></stop><stop offset="0.054" stop-color="#00A8DE"></stop><stop offset="0.2" stop-color="#683391"></stop><stop offset="0.285" stop-color="#A9258D"></stop><stop offset="0.4" stop-color="#E91388"></stop><stop offset="0.509" stop-color="#EB2D2E"></stop><stop offset="0.692" stop-color="#FDE92B"></stop><stop offset="0.876" stop-color="#7EBC44"></stop><stop offset="1" stop-color="#00DB54"></stop></linearGradient><linearGradient id="paint47_linear" x1="949.505" y1="163.874" x2="-176.741" y2="314.226" gradientUnits="userSpaceOnUse"><stop offset="0.022" stop-color="#00D1DE"></stop><stop offset="0.054" stop-color="#00A8DE"></stop><stop offset="0.2" stop-color="#683391"></stop><stop offset="0.285" stop-color="#A9258D"></stop><stop offset="0.4" stop-color="#E91388"></stop><stop offset="0.509" stop-color="#EB2D2E"></stop><stop offset="0.692" stop-color="#FDE92B"></stop><stop offset="0.876" stop-color="#7EBC44"></stop><stop offset="1" stop-color="#00DB54"></stop></linearGradient><linearGradient id="paint48_linear" x1="698.967" y1="278.103" x2="102.149" y2="365.489" gradientUnits="userSpaceOnUse"><stop offset="0.022" stop-color="#00D1DE"></stop><stop offset="0.054" stop-color="#00A8DE"></stop><stop offset="0.2" stop-color="#683391"></stop><stop offset="0.285" stop-color="#A9258D"></stop><stop offset="0.4" stop-color="#E91388"></stop><stop offset="0.509" stop-color="#EB2D2E"></stop><stop offset="0.692" stop-color="#FDE92B"></stop><stop offset="0.876" stop-color="#7EBC44"></stop><stop offset="1" stop-color="#00DB54"></stop></linearGradient><linearGradient id="paint49_linear" x1="949.159" y1="162.122" x2="13.5356" y2="705.785" gradientUnits="userSpaceOnUse"><stop offset="0.022" stop-color="#00D1DE"></stop><stop offset="0.054" stop-color="#00A8DE"></stop><stop offset="0.2" stop-color="#683391"></stop><stop offset="0.285" stop-color="#A9258D"></stop><stop offset="0.4" stop-color="#E91388"></stop><stop offset="0.509" stop-color="#EB2D2E"></stop><stop offset="0.692" stop-color="#FDE92B"></stop><stop offset="0.876" stop-color="#7EBC44"></stop><stop offset="1" stop-color="#00DB54"></stop></linearGradient><linearGradient id="paint50_linear" x1="696.62" y1="275.366" x2="69.4205" y2="529" gradientUnits="userSpaceOnUse"><stop offset="0.022" stop-color="#00D1DE"></stop><stop offset="0.054" stop-color="#00A8DE"></stop><stop offset="0.2" stop-color="#683391"></stop><stop offset="0.285" stop-color="#A9258D"></stop><stop offset="0.4" stop-color="#E91388"></stop><stop offset="0.509" stop-color="#EB2D2E"></stop><stop offset="0.692" stop-color="#FDE92B"></stop><stop offset="0.876" stop-color="#7EBC44"></stop><stop offset="1" stop-color="#00DB54"></stop></linearGradient><linearGradient id="paint51_linear" x1="668.184" y1="242.212" x2="40.3391" y2="476.859" gradientUnits="userSpaceOnUse"><stop offset="0.022" stop-color="#00D1DE"></stop><stop offset="0.054" stop-color="#00A8DE"></stop><stop offset="0.2" stop-color="#683391"></stop><stop offset="0.285" stop-color="#A9258D"></stop><stop offset="0.4" stop-color="#E91388"></stop><stop offset="0.509" stop-color="#EB2D2E"></stop><stop offset="0.692" stop-color="#FDE92B"></stop><stop offset="0.876" stop-color="#7EBC44"></stop><stop offset="1" stop-color="#00DB54"></stop></linearGradient><linearGradient id="paint52_linear" x1="1053.45" y1="280.394" x2="-330.241" y2="476.54" gradientUnits="userSpaceOnUse"><stop offset="0.022" stop-color="#00D1DE"></stop><stop offset="0.054" stop-color="#00A8DE"></stop><stop offset="0.2" stop-color="#683391"></stop><stop offset="0.285" stop-color="#A9258D"></stop><stop offset="0.4" stop-color="#E91388"></stop><stop offset="0.509" stop-color="#EB2D2E"></stop><stop offset="0.692" stop-color="#FDE92B"></stop><stop offset="0.876" stop-color="#7EBC44"></stop><stop offset="1" stop-color="#00DB54"></stop></linearGradient><linearGradient id="paint53_linear" x1="694.824" y1="273.303" x2="70.4563" y2="456.572" gradientUnits="userSpaceOnUse"><stop offset="0.022" stop-color="#00D1DE"></stop><stop offset="0.054" stop-color="#00A8DE"></stop><stop offset="0.2" stop-color="#683391"></stop><stop offset="0.285" stop-color="#A9258D"></stop><stop offset="0.4" stop-color="#E91388"></stop><stop offset="0.509" stop-color="#EB2D2E"></stop><stop offset="0.692" stop-color="#FDE92B"></stop><stop offset="0.876" stop-color="#7EBC44"></stop><stop offset="1" stop-color="#00DB54"></stop></linearGradient></defs></svg>